<?xml version="1.0" encoding="UTF-8" standalone="no"?>
<svg
   xmlns:svg="http://www.w3.org/2000/svg"
   xmlns="http://www.w3.org/2000/svg"
   width="800.0"
   height="240.0"

>
    <g transform="scale(0.7499999998124991, -0.7499999998124991)   translate(666.6666668333341,-126.66666677333343)" stroke-width="1.3333333336666682"  fill="none">
       <!-- hidden lines -->
       <g  stroke="rgb(160,160,160)" fill="none" stroke-dasharray="1.3333333336666682,1.3333333336666682" >

       </g>

       <!-- solid lines -->
       <g  stroke="rgb(0,0,0)" fill="none">
			<path d="M-1.6126909509142782e-14,-25.016600000019107 L-1.6087681874608854e-14,-25.01548677144188 L-1.604625440026476e-14,-25.012172736113882 L-1.6002654634680455e-14,-25.006696129095733 L-1.595691007547683e-14,-24.999094864721528 L-1.5909048169325724e-14,-24.98940653659884 L-1.5859096311949936e-14,-24.977668417608708 L-1.575303207167019e-14,-24.94819029491771 L-1.5638935501438825e-14,-24.91095226516643 L-1.551702393287222e-14,-24.866240965248377 L-1.5387513882401887e-14,-24.81433790043268 L-1.525062105127447e-14,-24.755519444364097 L-1.5106560325551765e-14,-24.690056839062972 L-1.49555457761107e-14,-24.618216194925274 L-1.479779065864333e-14,-24.540258490722596 L-1.4633507413656864e-14,-24.456439573602136 L-1.4462907666473638e-14,-24.367010159086718 L-1.4286202227231132e-14,-24.272215831074753 L-1.4103601090881954e-14,-24.17229704184031 L-1.3915313437193858e-14,-24.067489112033034 L-1.3721547630749733e-14,-23.9580222306782 L-1.352251122094761e-14,-23.84412145517671 L-1.3318410942000653e-14,-23.726006711305043 L-1.3109452712937156e-14,-23.603892793215337 L-1.2895841637600572e-14,-23.477989363435317 L-1.2677782004649475e-14,-23.348500952868335 L-1.245547728755757e-14,-23.21562696079335 L-1.2229130144613714e-14,-23.079561654864943 L-1.1998942418921912e-14,-22.940494171113286 L-1.1765115138401276e-14,-22.79860851394421 L-1.1527848515786072e-14,-22.654083556139113 L-1.1287341948625709e-14,-22.507093038855047 L-1.1043794019284733e-14,-22.357805571624663 L-1.0797402494942813e-14,-22.206384632356215 L-1.0296875654050547e-14,-21.89777059121625 L-9.787327259689116e-15,-21.582456106213588 L-9.270310102640889e-15,-21.26156426213646 L-8.74736393073046e-15,-20.936136037782905 L-8.22001544882461e-15,-20.60713030596088 L-7.158153159704833e-15,-19.941811281192145 L-6.096676015059874e-15,-19.27163605049015 L-5.0473281073433605e-15,-18.601319780672178 L-4.021644841684073e-15,-17.93426394271284 L-3.0309529358860832e-15,-17.27255631174406 L-2.08637042042867e-15,-16.616970967055142 L1.0158091847764662e-15,-14.025354682390649 L1.3060364306180544e-15,-13.69731120377225 L1.5703783477086052e-15,-13.366012603947212 L1.807608219210642e-15,-13.03052931794966 L2.016512371244569e-15,-12.689849674823467 L2.1958901728885162e-15,-12.342879897622426 L2.2741350615849525e-15,-12.16667195259146 L2.344554036178456e-15,-11.98844410341013 L2.4070006861356766e-15,-11.808036535650396 L2.4613294161081273e-15,-11.625284303259937 L2.507395445932166e-15,-11.440017328561908 L2.545054810629083e-15,-11.252060402255136 L2.5741643604049263e-15,-11.061233183414084 L2.59458176065069e-15,-10.867350199488811 L2.6061654919421853e-15,-10.67022084630499 L2.6087748500400796e-15,-10.469649388063903 L2.6022699458899574e-15,-10.265434957342439 L2.586511705622217e-15,-10.057371555093125 L2.561361870552149e-15,-9.845248050644077 L2.526682997179829e-15,-9.628848181699082 L2.482338457190316e-15,-9.407950554337456 L2.4281924374534723e-15,-9.182328643014197 L2.3641099400240016e-15,-8.951750790559824 L2.2899567821414947e-15,-8.715980208180696 L2.205599596230376e-15,-8.474774975458477 L2.1109058298999908e-15,-8.227888040350692 L2.0057437459445188e-15,-7.9750672191903424 L1.889982422342953e-15,-7.716055196686087 L1.7634917522592338e-15,-7.4505895259222275 L1.6261424440420625e-15,-7.178402628358651 L1.4778060212251428e-15,-6.8992217938309155 L1.3183548225269102e-15,-6.61276918055005 L1.14766200185074e-15,-6.318761815102759 L9.656015282847534e-16,-6.016911592451541 L8.70269259910342e-16,-5.86295397367163 L7.720481861021561e-16,-5.706925275934261 L6.709227822670548e-16,-5.548788042840396 L5.668775747608005e-16,-5.388504497264492 L4.598971408883074e-16,-5.226036541354391 L3.499661089035218e-16,-5.061345756531459 L2.370691580093663e-16,-4.894393403490558 L1.2119101835794887e-16,-4.725140422199975 L2.3164710502913833e-18,-4.553547431901529 L-1.1956965186343735e-16,-4.379574731110459 L-2.444824673839651e-16,-4.20318229761548 L-3.7243704156315794e-16,-4.02432978847892 L-5.034483895035877e-16,-3.8429765400363367 L-6.375314753590138e-16,-3.659081567897038 L-7.747012123339482e-16,-3.4726035669435316 L-9.14972462683862e-16,-3.2835009113320717 L-1.0583600377153646e-15,-3.0917316544921527 L-1.2048786977858148e-15,-2.8972535291268824 L-1.3545431523035714e-15,-2.7000239472128604 L-1.5073680597278432e-15,-2.500000000000169 " />
			<path d="M79.99999999999999,0.0 L400.0,0.0 " />
			<path d="M400.0,-9.505149637178377 L400.0,-9.504087231461561 L400.0,-9.500914910297636 L400.0,-9.49566351771128 L400.0,-9.488376806922824 L400.0,-9.467876709963452 L400.0,-9.4397731778672 L400.0,-9.404424769081745 L400.0,-9.362190443273265 L400.0,-9.313453071756433 L400.0,-9.25863249635738 L400.0,-9.1981517283696 L400.0,-9.132433779086586 L400.0,-9.061897993401109 L400.0,-8.986805846614935 L400.0,-8.90720439298937 L400.0,-8.823125376686564 L400.0,-8.734600541868668 L400.0,-8.641662225434342 L400.0,-8.544370195594071 L400.0,-8.442822624591198 L400.0,-8.337120550133681 L400.0,-8.227365009929477 L400.0,-8.113656706691417 L400.0,-7.996078898074661 L400.0,-7.874689226971823 L400.0,-7.749543291388679 L400.0,-7.620696689331003 L400.0,-7.488204921604212 L400.0,-7.35211931570022 L400.0,-7.212485537782208 L400.0,-7.069348850507338 L400.0,-6.922754516532769 L400.0,-6.7727474151616605 L400.0,-6.619364221582691 L400.0,-6.462633733645818 L400.0,-6.302584431235999 L400.0,-6.139244794238194 L400.0,-5.972642231281096 L400.0,-5.802796314497316 L400.0,-5.629723135032292 L400.0,-5.453438768272549 L400.0,-5.273959238906821 L400.0,-5.091296599784015 L400.0,-4.905456143161738 L400.0,-4.716442502895547 L400.0,-4.524260312620444 L400.0,-4.32891231896106 L400.0,-4.13039479628945 L400.0,-3.9287026324544994 L400.0,-3.723830713463505 L400.0,-3.515772015124043 L400.0,-3.304513992054671 L400.0,-3.090043107190563 L400.0,-2.872345659716134 L400.0,-2.65140446675943 L400.0,-2.427199014330044 L400.0,-2.1997086242725317 L400.0,-1.9689105083142684 L400.0,-1.7347784401191892 L400.0,-1.4972857531473005 L400.0,-1.2564033927855747 L400.0,-1.0121001418980724 L400.0,-0.7643436131170841 L400.0,-0.5130991029243159 L400.0,-0.2583305314450689 L400.0,-2.9434061119802256e-14 " />
			<path d="M400.0,0.0 L400.0,0.2281334937444217 L400.0,0.451380104591233 L400.0,0.6703307309278572 L400.0,0.8855049038718892 L400.0,1.0973504878118354 L400.0,1.3062419208803215 L400.0,1.5124763119053375 L400.0,1.716279431257512 L400.0,1.9177968005464585 L400.0,2.1170923244317126 L400.0,2.3141578533843647 L400.0,2.5088884189760425 L400.0,2.7011138321956123 L400.0,2.890546334095028 L400.0,3.076836289055863 L400.0,3.2595230960461374 L400.0,3.438078440094888 L400.0,3.6117762318687294 L400.0,3.779807484534503 L400.0,3.9414013108860226 L400.0,4.095764723622755 L400.0,4.169781579708119 L400.0,4.241316694744068 L400.0,4.3100858238865545 L400.0,4.375860098265529 L400.0,4.438755249201906 L400.0,4.4990193484266054 L400.0,4.556900741300811 L400.0,4.612637760272992 L400.0,4.666337527821697 L400.0,4.718014906809388 L400.0,4.767682841432493 L400.0,4.81534406019227 L400.0,4.860775069681788 L400.0,4.903530905683894 L400.0,4.9431573386400665 L400.0,4.979199319058394 L400.0,5.0111846718236395 L400.0,5.038625006915784 L400.0,5.061031296695653 L400.0,5.077898622771664 L400.0,5.088567138463751 L400.0,5.09228958633699 " />
			<path d="M-79.99999999999999,0.0 L-400.0,0.0 " />
			<path d="M-400.0,-9.505149637178377 L-400.0,-9.504087231461561 L-400.0,-9.500914910297636 L-400.0,-9.49566351771128 L-400.0,-9.488376806922824 L-400.0,-9.467876709963452 L-400.0,-9.4397731778672 L-400.0,-9.404424769081745 L-400.0,-9.362190443273265 L-400.0,-9.313453071756433 L-400.0,-9.25863249635738 L-400.0,-9.1981517283696 L-400.0,-9.132433779086586 L-400.0,-9.061897993401109 L-400.0,-8.986805846614935 L-400.0,-8.90720439298937 L-400.0,-8.823125376686564 L-400.0,-8.734600541868668 L-400.0,-8.641662225434342 L-400.0,-8.544370195594071 L-400.0,-8.442822624591198 L-400.0,-8.337120550133681 L-400.0,-8.227365009929477 L-400.0,-8.113656706691417 L-400.0,-7.996078898074661 L-400.0,-7.874689226971823 L-400.0,-7.749543291388679 L-400.0,-7.620696689331003 L-400.0,-7.488204921604212 L-400.0,-7.35211931570022 L-400.0,-7.212485537782208 L-400.0,-7.069348850507338 L-400.0,-6.922754516532769 L-400.0,-6.7727474151616605 L-400.0,-6.619364221582691 L-400.0,-6.462633733645818 L-400.0,-6.302584431235999 L-400.0,-6.139244794238194 L-400.0,-5.972642231281096 L-400.0,-5.802796314497316 L-400.0,-5.629723135032292 L-400.0,-5.453438768272549 L-400.0,-5.273959238906821 L-400.0,-5.091296599784015 L-400.0,-4.905456143161738 L-400.0,-4.716442502895547 L-400.0,-4.524260312620444 L-400.0,-4.32891231896106 L-400.0,-4.13039479628945 L-400.0,-3.9287026324544994 L-400.0,-3.723830713463505 L-400.0,-3.515772015124043 L-400.0,-3.304513992054671 L-400.0,-3.090043107190563 L-400.0,-2.872345659716134 L-400.0,-2.65140446675943 L-400.0,-2.427199014330044 L-400.0,-2.1997086242725317 L-400.0,-1.9689105083142684 L-400.0,-1.7347784401191892 L-400.0,-1.4972857531473005 L-400.0,-1.2564033927855747 L-400.0,-1.0121001418980724 L-400.0,-0.7643436131170841 L-400.0,-0.5130991029243159 L-400.0,-0.2583305314450689 L-400.0,-2.9434061119802256e-14 " />
			<path d="M-400.0,0.0 L-400.0,0.2281334937444217 L-400.0,0.451380104591233 L-400.0,0.6703307309278572 L-400.0,0.8855049038718892 L-400.0,1.0973504878118354 L-400.0,1.3062419208803215 L-400.0,1.5124763119053375 L-400.0,1.716279431257512 L-400.0,1.9177968005464585 L-400.0,2.1170923244317126 L-400.0,2.3141578533843647 L-400.0,2.5088884189760425 L-400.0,2.7011138321956123 L-400.0,2.890546334095028 L-400.0,3.076836289055863 L-400.0,3.2595230960461374 L-400.0,3.438078440094888 L-400.0,3.6117762318687294 L-400.0,3.779807484534503 L-400.0,3.9414013108860226 L-400.0,4.095764723622755 L-400.0,4.169781579708119 L-400.0,4.241316694744068 L-400.0,4.3100858238865545 L-400.0,4.375860098265529 L-400.0,4.438755249201906 L-400.0,4.4990193484266054 L-400.0,4.556900741300811 L-400.0,4.612637760272992 L-400.0,4.666337527821697 L-400.0,4.718014906809388 L-400.0,4.767682841432493 L-400.0,4.81534406019227 L-400.0,4.860775069681788 L-400.0,4.903530905683894 L-400.0,4.9431573386400665 L-400.0,4.979199319058394 L-400.0,5.0111846718236395 L-400.0,5.038625006915784 L-400.0,5.061031296695653 L-400.0,5.077898622771664 L-400.0,5.088567138463751 L-400.0,5.09228958633699 " />
			<path d="M80.0,0.0 L80.0,0.21834313216876486 L80.0,0.4308123839598068 L80.0,0.6376416048088874 L80.0,0.8390405065961553 L80.0,1.0351937981699324 L80.0,1.2262600858176878 L80.0,1.412373685119983 L80.0,1.593639920185143 L80.0,1.7701381640837475 L80.0,1.9419198869296435 L80.0,2.109006175680481 L80.0,2.2713911433160376 L80.0,2.429035881746074 L80.0,2.581871692754102 L80.0,2.7297985659836583 L80.0,2.872677872055839 L80.0,3.010346625922976 L80.0,3.1425895291447126 L80.0,3.269173401678977 L80.0,3.3898038607091068 L80.0,3.504161423074231 L80.0,3.611873089001515 L80.0,3.71251347133481 L80.0,3.805623492043524 L80.0,3.849184910890491 L80.0,3.890657116900482 L80.0,3.9299695901673966 L80.0,3.9670419366913277 L80.0,4.001783581469979 L80.0,4.034103482069248 L80.0,4.0639105960550275 L80.0,4.0911116889195815 L80.0,4.1155963194515675 L80.0,4.137245922354543 L80.0,4.15594188430557 L80.0,4.171565554142888 L80.0,4.183987892906965 L80.0,4.1930553987592125 L80.0,4.198611050875167 L80.0,4.200497828430363 " />
			<path d="M0.0,0.0 L80.0,0.0 " />
			<path d="M0.0,-6.000711183472088 L0.0,-5.9980157869647135 L0.0,-5.990079141084905 L0.0,-5.977125561296133 L0.0,-5.9593793630618705 L0.0,-5.937059834722913 L0.0,-5.910351317650019 L0.0,-5.879423313502859 L0.0,-5.844445269885641 L0.0,-5.805586565793298 L0.0,-5.763004974384904 L0.0,-5.716833687814382 L0.0,-5.6672027667019 L0.0,-5.6142422716676235 L0.0,-5.55808159557199 L0.0,-5.4988355869863 L0.0,-5.436604988633545 L0.0,-5.3714899631909105 L0.0,-5.303590673335583 L0.0,-5.2330056111211745 L0.0,-5.159818698573987 L0.0,-5.084106343219592 L0.0,-5.0059448901066474 L0.0,-4.925410684283817 L0.0,-4.842576943870818 L0.0,-4.757503746083982 L0.0,-4.67024771668481 L0.0,-4.580865481420153 L0.0,-4.489413613064216 L0.0,-4.300495179890048 L0.0,-4.103825531508178 L0.0,-3.899712237119171 L0.0,-3.688388132505486 L0.0,-3.470051259637054 L0.0,-3.2448444904515923 L0.0,-3.0128659652581615 L0.0,-2.774171267042697 L0.0,-2.528768805834087 L0.0,-2.27662845740725 L0.0,-2.0176766930283825 L0.0,-1.7518001225967776 L0.0,-1.4788482831004568 L0.0,-1.1986292951380237 L0.0,-0.9109165782985498 L0.0,-0.6154462627992456 L0.0,-0.4647097816112357 L0.0,-0.31191876024104187 L0.0,-0.157030496214646 L0.0,-2.0434098232365418e-14 " />
			<path d="M80.0,-4.200497828430364 L80.0,-4.198611050875162 L80.0,-4.1930553987592045 L80.0,-4.183987892906954 L80.0,-4.171565554142873 L80.0,-4.155941884305552 L80.0,-4.137245922354523 L80.0,-4.115596319451546 L80.0,-4.091111688919559 L80.0,-4.063910596055005 L80.0,-4.034103482069225 L80.0,-4.001783581469957 L80.0,-3.967041936691305 L80.0,-3.9299695901673735 L80.0,-3.8906571169004587 L80.0,-3.849184910890467 L80.0,-3.8056234920435004 L80.0,-3.7125134713347867 L80.0,-3.611873089001491 L80.0,-3.5041614230742075 L80.0,-3.389803860709084 L80.0,-3.2691734016789553 L80.0,-3.1425895291446926 L80.0,-3.0103466259229585 L80.0,-2.8726778720558244 L80.0,-2.729798565983646 L80.0,-2.5818716927540946 L80.0,-2.429035881746078 L80.0,-2.2713911433160567 L80.0,-2.1090061756805123 L80.0,-1.9419198869296794 L80.0,-1.7701381640837786 L80.0,-1.5936399201851634 L80.0,-1.4123736851199986 L80.0,-1.2262600858177115 L80.0,-1.0351937981699784 L80.0,-0.8390405065962216 L80.0,-0.6376416048089626 L80.0,-0.43081238395987737 L80.0,-0.21834313216880827 L80.0,-2.043365701405133e-14 " />
			<path d="M-80.0,0.0 L-80.0,0.21834313216876486 L-80.0,0.4308123839598068 L-80.0,0.6376416048088874 L-80.0,0.8390405065961553 L-80.0,1.0351937981699324 L-80.0,1.2262600858176878 L-80.0,1.412373685119983 L-80.0,1.593639920185143 L-80.0,1.7701381640837475 L-80.0,1.9419198869296435 L-80.0,2.109006175680481 L-80.0,2.2713911433160376 L-80.0,2.429035881746074 L-80.0,2.581871692754102 L-80.0,2.7297985659836583 L-80.0,2.872677872055839 L-80.0,3.010346625922976 L-80.0,3.1425895291447126 L-80.0,3.269173401678977 L-80.0,3.3898038607091068 L-80.0,3.504161423074231 L-80.0,3.611873089001515 L-80.0,3.71251347133481 L-80.0,3.805623492043524 L-80.0,3.849184910890491 L-80.0,3.890657116900482 L-80.0,3.9299695901673966 L-80.0,3.9670419366913277 L-80.0,4.001783581469979 L-80.0,4.034103482069248 L-80.0,4.0639105960550275 L-80.0,4.0911116889195815 L-80.0,4.1155963194515675 L-80.0,4.137245922354543 L-80.0,4.15594188430557 L-80.0,4.171565554142888 L-80.0,4.183987892906965 L-80.0,4.1930553987592125 L-80.0,4.198611050875167 L-80.0,4.200497828430363 " />
			<path d="M0.0,0.0 L-80.0,0.0 " />
			<path d="M0.0,-6.000711183472088 L0.0,-5.9980157869647135 L0.0,-5.990079141084905 L0.0,-5.977125561296133 L0.0,-5.9593793630618705 L0.0,-5.937059834722913 L0.0,-5.910351317650019 L0.0,-5.879423313502859 L0.0,-5.844445269885641 L0.0,-5.805586565793298 L0.0,-5.763004974384904 L0.0,-5.716833687814382 L0.0,-5.6672027667019 L0.0,-5.6142422716676235 L0.0,-5.55808159557199 L0.0,-5.4988355869863 L0.0,-5.436604988633545 L0.0,-5.3714899631909105 L0.0,-5.303590673335583 L0.0,-5.2330056111211745 L0.0,-5.159818698573987 L0.0,-5.084106343219592 L0.0,-5.0059448901066474 L0.0,-4.925410684283817 L0.0,-4.842576943870818 L0.0,-4.757503746083982 L0.0,-4.67024771668481 L0.0,-4.580865481420153 L0.0,-4.489413613064216 L0.0,-4.300495179890048 L0.0,-4.103825531508178 L0.0,-3.899712237119171 L0.0,-3.688388132505486 L0.0,-3.470051259637054 L0.0,-3.2448444904515923 L0.0,-3.0128659652581615 L0.0,-2.774171267042697 L0.0,-2.528768805834087 L0.0,-2.27662845740725 L0.0,-2.0176766930283825 L0.0,-1.7518001225967776 L0.0,-1.4788482831004568 L0.0,-1.1986292951380237 L0.0,-0.9109165782985498 L0.0,-0.6154462627992456 L0.0,-0.4647097816112357 L0.0,-0.31191876024104187 L0.0,-0.157030496214646 L0.0,-2.0434098232365418e-14 " />
			<path d="M-80.0,-4.200497828430364 L-80.0,-4.198611050875162 L-80.0,-4.1930553987592045 L-80.0,-4.183987892906954 L-80.0,-4.171565554142873 L-80.0,-4.155941884305552 L-80.0,-4.137245922354523 L-80.0,-4.115596319451546 L-80.0,-4.091111688919559 L-80.0,-4.063910596055005 L-80.0,-4.034103482069225 L-80.0,-4.001783581469957 L-80.0,-3.967041936691305 L-80.0,-3.9299695901673735 L-80.0,-3.8906571169004587 L-80.0,-3.849184910890467 L-80.0,-3.8056234920435004 L-80.0,-3.7125134713347867 L-80.0,-3.611873089001491 L-80.0,-3.5041614230742075 L-80.0,-3.389803860709084 L-80.0,-3.2691734016789553 L-80.0,-3.1425895291446926 L-80.0,-3.0103466259229585 L-80.0,-2.8726778720558244 L-80.0,-2.729798565983646 L-80.0,-2.5818716927540946 L-80.0,-2.429035881746078 L-80.0,-2.2713911433160567 L-80.0,-2.1090061756805123 L-80.0,-1.9419198869296794 L-80.0,-1.7701381640837786 L-80.0,-1.5936399201851634 L-80.0,-1.4123736851199986 L-80.0,-1.2262600858177115 L-80.0,-1.0351937981699784 L-80.0,-0.8390405065962216 L-80.0,-0.6376416048089626 L-80.0,-0.43081238395987737 L-80.0,-0.21834313216880827 L-80.0,-2.043365701405133e-14 " />
			<path d="M1.110223024625e-14,100.0 L-0.21834313216876483,100.0 L-0.4308123839598068,100.0 L-0.6376416048088874,100.0 L-0.8390405065961553,100.0 L-1.0351937981699324,100.0 L-1.2262600858176878,100.0 L-1.412373685119983,100.0 L-1.593639920185143,100.0 L-1.7701381640837475,100.0 L-1.9419198869296435,100.0 L-2.109006175680481,100.0 L-2.2713911433160376,100.0 L-2.429035881746074,100.0 L-2.581871692754102,100.0 L-2.7297985659836583,100.0 L-2.872677872055839,100.0 L-3.010346625922976,100.0 L-3.1425895291447126,100.0 L-3.269173401678977,100.0 L-3.3898038607091068,100.0 L-3.504161423074231,100.0 L-3.611873089001515,100.0 L-3.71251347133481,100.0 L-3.805623492043524,100.0 L-3.849184910890491,100.0 L-3.890657116900482,100.0 L-3.9299695901673966,100.0 L-3.9670419366913277,100.0 L-4.001783581469979,100.0 L-4.034103482069248,100.0 L-4.0639105960550275,100.0 L-4.0911116889195815,100.0 L-4.1155963194515675,100.0 L-4.137245922354543,100.0 L-4.15594188430557,100.0 L-4.171565554142888,100.0 L-4.183987892906965,100.0 L-4.1930553987592125,100.0 L-4.198611050875167,100.0 L-4.200497828430363,100.0 " />
			<path d="M0.0,0.0 L1.110223024625e-14,100.0 " />
			<path d="M4.20049782843055,100.0 L4.198611050875369,100.0 L4.193055398759449,100.0 L4.18398789290722,100.0 L4.171565554143112,100.0 L4.155941884305684,100.0 L4.1372459223544835,100.0 L4.1155963194513,100.0 L4.091111688919104,100.0 L4.063910596054368,100.0 L4.0341034820684545,100.0 L4.001783581469091,100.0 L3.9670419366903737,100.0 L3.929969590166397,100.0 L3.8906571168994466,100.0 L3.849184910889423,100.0 L3.805623492042428,100.0 L3.7125134713336694,100.0 L3.611873089000342,100.0 L3.504161423073038,100.0 L3.3898038607079055,100.0 L3.269173401677778,100.0 L3.1425895291435255,100.0 L3.0103466259218092,100.0 L2.8726778720546995,100.0 L2.729798565982553,100.0 L2.581871692753039,100.0 L2.429035881745066,100.0 L2.271391143315095,100.0 L2.1090061756796055,100.0 L1.9419198869288314,100.0 L1.7701381640829938,100.0 L1.5936399201844467,100.0 L1.4123736851193542,100.0 L1.2262600858171455,100.0 L1.0351937981694956,100.0 L0.8390405065958252,100.0 L0.6376416048086573,100.0 L0.43081238395966837,100.0 L0.21834313216870094,100.0 L3.1525478919446433e-14,100.0 " />
			<path d="M32.0962986897335,7.434129820033086 L31.98589823473761,7.683900413399128 L31.87290709026185,7.930839070413788 L31.757457161940263,8.174977067760326 L31.639682429424898,8.41635531217522 L31.50446053905797,8.682441911984766 L31.366600906956972,8.944941095525852 L31.226178716890736,9.203909668182554 L31.083267487467488,9.459403691854686 L30.93793907213486,9.7114784849578 L30.79026365917988,9.960188622423193 L30.640309771728983,10.2055879356979 L30.488144267748005,10.447729512744694 L30.33383234004217,10.686665698042091 L30.177437516256123,10.922448092584348 L30.019021658873896,11.155127553881456 L29.85864496521893,11.384754195959154 L29.696365967454053,11.611377389358916 L29.532241532581512,11.835045761137957 L29.36632686244295,12.055807194869235 L29.1986754937194,12.273708830641443 L29.029339297931305,12.488797065059018 L28.858368481438514,12.701117551242135 L28.685811585440266,12.910715198826711 L28.511715485975206,13.117634173964403 L28.33612539392138,13.321917899322605 L28.159084854996237,13.523609054084456 L27.980635749756626,13.722749573948832 L27.80081829359879,13.91938065113035 L27.619671036758383,14.113542734359365 L27.437230864310457,14.305275528881975 L27.253532996169458,14.494617996460017 L27.068610987089244,14.681608355371068 L26.882496726663067,14.866284080408446 L26.695220439323585,15.048681902881208 L26.506810684342845,15.22883781061415 L26.317294355832317,15.40678704794781 L26.126696682742846,15.58256411573847 L25.935041228864694,15.75620277135814 L25.742349892827527,15.927736028694586 L25.548642908100398,16.0971961581513 L25.35393884299177,16.264614686647523 L25.15825460064951,16.430022397618234 L24.961605419060877,16.59344933101415 L24.76400487105254,16.75492478330173 L24.565464864290558,16.91447730746317 L24.365995641280403,17.072134712996412 L24.165605779366942,17.227924065915136 L23.96430219073444,17.381871688748756 L23.558973156246402,17.684343316857074 L23.150030532078453,17.979745307871514 L22.737469669923183,18.26826147659408 L22.321259278903586,18.550063742078606 L21.901341425573076,18.82531212763077 L21.47763153391549,19.094154760808095 L21.050018385345066,19.356727873419945 L20.61836411870647,19.613155801527522 L20.18250423027478,19.863550985443876 L19.742247573755492,20.108013969733896 L19.359892063014193,20.314636354311414 L18.97580198862032,20.516270403252676 L18.58973208038014,20.71314008715475 L18.20143646488388,20.90544656074414 L17.810669403168166,21.093368760011945 L17.417186028378623,21.277063999349007 L17.020743083432414,21.456668568681057 L16.621099658680773,21.63229833060387 L16.218017929571538,21.804049317518423 L15.811263894311704,21.971998328766045 L15.400608111529964,22.136203527763552 L14.985826437939266,22.296705039138427 L14.566700765999324,22.453525545863943 L14.143019761579167,22.60667088639435 L13.714579601619715,22.756130651799985 L13.281184711796277,22.901878782902454 L12.842648504181117,23.043874167409772 L12.398794114905986,23.182061237051528 L11.949455141824664,23.31637056471401 L11.494476382175536,23.446719461575384 L11.033714570244069,23.57301257424083 L10.567039115025397,23.695142481877706 L10.094332837886881,23.81299029335068 L9.615492710230594,23.926426244356907 L9.130430591155898,24.035310294561164 L8.639073965122012,24.139492724731 L8.141366679610496,24.2388147338719 L7.637269682787812,24.333109036362437 L7.126761761167919,24.422200459089403 L6.609840277274733,24.505906538582984 L6.08652190730471,24.584038118151906 L5.556843378789511,24.656399945018563 " />
			<path d="M-5.556842846567111,24.65642950941735 L-6.090547969186321,24.583486066340956 L-6.61775778521585,24.504689122714566 L-7.138449726817992,24.4202382646537 L-7.652619736377601,24.33032643914903 L-8.16028161538212,24.235139389010946 L-8.66146637330169,24.134855087814117 L-9.156221576469276,24.02964317484205 L-9.64461069696068,23.91966439003166 L-10.126712461474671,23.805070008917834 L-10.602620200213096,23.686001277577976 L-11.072441195760897,23.562588847576592 L-11.536296031966247,23.43495221090985 L-11.994317942820647,23.30319913495012 L-12.446652161338964,23.16742509739057 L-12.893455268439546,23.02771272118971 L-13.334894541824328,22.88413120951595 L-13.771147304858872,22.73673578069217 L-14.202400275452481,22.5855671031403 L-14.628848914938303,22.430650730325844 L-15.050696776953373,22.27199653570248 L-15.468154856318721,22.109598147656612 L-15.881440937919484,21.94343238445191 L-16.290778945584947,21.773458689173907 L-16.69639829096865,21.599618564674554 L-17.09853322242849,21.421835008516748 L-17.497422173906777,21.240011947918955 L-17.893307113810337,21.05403367469972 L-18.286432893890613,20.863764280222252 L-18.677046598123713,20.669047090338996 L-19.065396891590517,20.469704100336184 L-19.45173336935679,20.26553540987838 L-19.83630590535322,20.056318657953092 L-20.260591116533124,19.819127171750882 L-20.680857052283837,19.57637307226633 L-21.097261762151426,19.3279667843831 L-21.509940964484144,19.073808150503066 L-21.919008046432413,18.81378643054629 L-22.324554063948842,18.547780301951033 L-22.726647741788206,18.275657859673753 L-23.125335473507466,17.9972766161891 L-23.52064132146576,17.712483501489935 L-23.912567016824404,17.421114863087293 L-24.30109195954689,17.122996466010427 L-24.686173218398885,16.817943492806773 L-25.06774553094824,16.50576054354197 L-25.257189331662474,16.34693137175978 L-25.44572130356498,16.186241635799853 L-25.633327008202347,16.023663934347383 L-25.819990611421307,15.859170204682451 L-26.005694883368726,15.692731722680035 L-26.190421198491602,15.524319102809992 L-26.37414953553708,15.353902298137069 L-26.556858477552428,15.1814506003209 L-26.738525211885058,15.006932639616005 L-26.91912553018252,14.830316384871795 L-27.098633828392487,14.651569143532564 L-27.277023106762787,14.470657561637497 L-27.45426496984137,14.287547623820661 L-27.63032962647633,14.102204653311016 L-27.805185889815885,13.914593311932407 L-27.97880117730841,13.724677600103565 L-28.151141510702395,13.532420856838112 L-28.322171516046478,13.337785759744552 L-28.491854423689432,13.14073432502628 L-28.660152068280162,12.94122790748158 L-28.827024888767717,12.739227200503615 L-28.992431928401267,12.534692236080447 L-29.156330834730134,12.327582384795017 L-29.318677859603767,12.117856355825154 L-29.479427859171757,11.90547219694358 L-29.638534293883826,11.690387294517894 L-29.79594922848983,11.472558373510592 L-29.951623332039777,11.251941497479056 L-30.105505877883786,11.02849206857555 L-30.257544743672135,10.80216482754723 L-30.407686411355225,10.572913853736136 L-30.555875967183592,10.340692565079197 L-30.702057101707922,10.105453718108231 L-30.846172109779022,9.86714940794994 L-30.988161890547843,9.625731068325914 L-31.127965947465466,9.381149471552632 L-31.26552238828312,9.133354728541462 L-31.400767925052154,8.882296288798653 L-31.582140920335583,8.531309621550696 L-31.758882485843852,8.17287177898155 L-31.93055788991838,7.807098252067212 L-32.01435774639279,7.621502867182095 L-32.096724718847774,7.4341271082036755 " />
			<path d="M-27.791889308700803,-13.927516872543485 L-27.48221205805078,-14.257027237654357 L-27.169032711072493,-14.57946938552446 L-26.85251027633777,-14.895031620482596 L-26.53278107092832,-15.20390044715281 L-26.20995872043571,-15.506260570454396 L-25.884134158961395,-15.802294895601904 L-25.555375629116668,-16.092184528105133 L-25.22372868202271,-16.376108773769143 L-24.889216177310562,-16.654245138694233 L-24.551838283121135,-16.926769329275967 L-24.211572476105207,-17.193855252205154 L-23.868373541423413,-17.455675014467857 L-23.522173572746276,-17.712398923345393 L-23.17288197225416,-17.964195486414333 L-22.82038545063732,-18.211231411546496 L-22.464548027095866,-18.45367160690896 L-22.184914432038465,-18.639604013686906 L-21.904574759475906,-18.82212403184799 L-21.623434241167057,-19.00134635124203 L-21.341399055657092,-19.17737957329999 L-21.058376354812044,-19.35032629400677 L-20.774274290353357,-19.520283186874007 L-20.489002040392442,-19.687341085912895 L-20.202469835965225,-19.851585068606962 L-19.914588987566695,-20.013094538884904 L-19.62527191168546,-20.17194331009336 L-19.334432157338302,-20.32819968796973 L-19.04198443260472,-20.48192655361497 L-18.747844631161495,-20.633181446466406 L-18.451929858817223,-20.782016647270527 L-18.154158460046887,-20.928479261055788 L-17.85445004452639,-21.072611300105418 L-17.552725513667127,-21.214449766930223 L-17.248907087150513,-21.35402673724138 L-16.94291832946256,-21.491369442923258 L-16.634684176428408,-21.626500355006197 L-16.32413096174689,-21.75943726663933 L-16.011186443525066,-21.89019337606338 L-15.695779830812809,-22.01877736958346 L-15.377841810137319,-22.145193504541876 L-15.057304572037696,-22.269441692290936 L-14.734101837599487,-22.39151758116575 L-14.408168884989236,-22.511412639457028 L-14.07944257598904,-22.629114238383885 L-13.747861382531095,-22.744605735066653 L-13.413365413232254,-22.85786655549967 L-13.075896439928572,-22.968872277524095 L-12.735397924209865,-23.0775947138007 L-12.391815043954256,-23.184001994782683 L-12.04509471986273,-23.288058651688463 L-11.69518564199368,-23.38972569947449 L-11.342038296297474,-23.488960719808038 L-10.985604991150986,-23.585717944040017 L-10.625839883892159,-23.67994833617778 L-10.262699007354563,-23.771599675857907 L-9.89614029640193,-23.860616641319027 L-9.526123614462726,-23.94694089237461 L-9.152610780064677,-24.03051115338578 L-8.775565593369354,-24.111263296234103 L-8.394953862706693,-24.189130423294408 L-8.010743431109562,-24.26404295040757 L-7.622904202848316,-24.33592868985333 L-7.231408169965341,-24.40471293332309 L-6.836229438809609,-24.47031853489272 L-6.4373442565712296,-24.532665993995344 L-6.034731037816,-24.59167353839418 L-5.628370391019957,-24.647257207155302 L-5.218245145103936,-24.699330933620466 L-4.804340375968112,-24.747806628379912 L-4.386643433026556,-24.792594262245153 L-3.9651439657417886,-24.833601949221798 L-3.539833950159332,-24.870736029482337 L-3.1107077154422544,-24.903901152338957 L-2.6777619704057267,-24.933000359216333 L-2.240995830051586,-24.95793516662444 L-1.8004108421028646,-24.97860564913136 L-1.356011013538355,-24.994910522336067 L-0.9078028371271624,-25.006747225841245 L-0.45579531796325484,-25.01401200622609 L-5.340536551140881e-13,-25.016600000019107 " />
			<path d="M-1.612690950914278e-14,-25.016600000019107 L0.4827343118357849,-25.0139662149437 L0.9648500917972145,-25.00585692658631 L1.4456893454716875,-24.992361786805876 L1.9246481178803334,-24.97357664867663 L2.4011764934779953,-24.949603566488076 L2.8747785961532313,-24.92055079574501 L3.3450125892283125,-24.886532793167518 L3.811490675459223,-24.847670216690958 L4.273879097035664,-24.804089925465988 L4.731898135581047,-24.755924979858538 L5.185322112152502,-24.703314641449825 L5.633979387240869,-24.646404373036365 L6.077752360770704,-24.585345838629937 L6.516577472100276,-24.52029690345762 L6.950445200021568,-24.451421633961772 L7.379400062760281,-24.378890297800037 L7.8249304879564505,-24.298592416367054 L8.26489491287862,-24.2145263942004 L8.699462206592269,-24.126781383484637 L9.128797250842918,-24.03544151074297 L9.55306094005614,-23.940585876837268 L9.97241018133756,-23.842288556968054 L10.386997894472845,-23.740618600674512 L10.796973011927713,-23.635640031834473 L11.202480478847932,-23.52741184866444 L11.603661253059322,-23.41598802371956 L12.000652305067746,-23.301417503893635 L12.393586618059116,-23.18374421041914 L12.7825931878994,-23.06300703886719 L13.167797023134609,-22.939239859147563 L13.549319144990802,-22.812471515508694 L13.92727658737409,-22.682725826537673 L14.30178239687063,-22.550021585160252 L14.672945632746632,-22.41437255864083 L15.04087136694835,-22.275787488582477 L15.405660684102095,-22.1342700909269 L15.767410681514217,-21.989819055954484 L16.126214469171117,-21.842428048284255 L16.482161169739243,-21.692085706873904 L16.835335918565107,-21.538775645019772 L17.18581986367525,-21.382476450356865 L17.53369016577627,-21.22316168485884 L17.87901999825482,-21.060799884838012 L18.221878547177592,-20.895354560945353 L18.56233101129133,-20.72678419817049 L18.900438602022835,-20.555042255841713 L19.23625854347894,-20.380077167625956 L19.569844072446543,-20.201832341528824 L19.850941384761022,-20.04834006291744 L20.130406576513995,-19.892472105775326 L20.408268290321544,-19.734205508002066 L20.68455224384412,-19.57351535146251 L20.959281229786523,-19.410374761986766 L21.232475115897902,-19.24475490937021 L21.50415084497177,-19.076625007373483 L21.774322434845985,-18.905952313722484 L22.043000978402763,-18.732702130108372 L22.31019464356868,-18.55683780218758 L22.57590867331465,-18.378320719581797 L22.840145385655966,-18.19711031587797 L23.10290417365225,-18.013164068628328 L23.364181505407494,-17.826437499350337 L23.623970924070036,-17.63688417352675 L23.88226304783258,-17.444455700605566 L24.13904556993217,-17.249101734000057 L24.39430325865021,-17.050769971088755 L24.64801795731246,-16.849406153215455 L24.900168584289037,-16.644954065689213 L25.150731132994405,-16.43735553778435 L25.399678671887386,-16.22655044274045 L25.646981344471158,-16.012476697762366 L25.892606369293244,-15.795070264020206 L26.136518039945535,-15.57426514664934 L26.378677725064268,-15.34999339475041 L26.619043868330035,-15.122185101389315 L26.857571988467782,-14.890768403597214 L27.094214679246814,-14.655669482370538 L27.328921609480787,-14.416812562670973 L27.561639523027704,-14.174119913425475 L27.792312238789908,-13.927511847526285 " />
			<path d="M0.0,-14.257724455767349 L399.9999999999991,-9.50514963717839 " />
			<path d="M5.863875009659456,7.601108692446093 L399.9999999999991,5.092289586337001 " />
			<path d="M0.0,-14.257724455767349 L-399.99999999999915,-9.50514963717839 " />
			<path d="M-5.863875009659436,7.601108692446093 L-399.99999999999915,5.092289586337001 " />
			<path d="M5.895073650196286,5.868056304546614 L79.99999999999983,4.200497828430368 " />
			<path d="M0.0,-6.000711183472088 L79.99999999999982,-4.2004978284303665 " />
			<path d="M-5.895073650196273,5.868056304546612 L-79.99999999999982,4.200497828430367 " />
			<path d="M0.0,-6.000711183472088 L-79.99999999999982,-4.200497828430367 " />
			<path d="M-6.0005130078069415,0.011008454336488662 L-4.200497828430367,99.99999999999977 " />
			<path d="M6.000513007806941,0.011008454336488659 L4.200497828430554,99.99999999999977 " />

       </g>
    </g>
    
</svg>
