<?xml version="1.0" encoding="UTF-8" standalone="no"?>
<svg
   xmlns:svg="http://www.w3.org/2000/svg"
   xmlns="http://www.w3.org/2000/svg"
   width="800.0"
   height="240.0"

>
    <g transform="scale(1.1538461534023656, -1.1538461534023656)   translate(173.33333350000018,-42.34993344001913)" stroke-width="0.866666667000001"  fill="none">
       <!-- hidden lines -->
       <g  stroke="rgb(160,160,160)" fill="none" stroke-dasharray="0.866666667000001,0.866666667000001" >

       </g>

       <!-- solid lines -->
       <g  stroke="rgb(0,0,0)" fill="none">
			<path d="M0.0,6.661338147751e-16 L0.0,-0.24504284438328341 L0.0,-0.487725794616067 L0.0,-0.7257116859421648 L0.0,-0.8422246293342219 L0.0,-0.9567085798726103 L0.0,-1.0688877351643178 L0.0,-1.1784918454488118 L0.0,-1.2852568646592955 L0.0,-1.3889255865123784 L0.0,-1.4892482641054414 L0.0,-1.5859832115376538 L0.0,-1.6788973861114078 L0.0,-1.767766949715687 L0.0,-1.852377808041395 L0.0,-1.93252612633084 L0.0,-2.0080188204191183 L0.0,-2.078674021883992 L0.0,-2.1443215161827385 L0.0,-2.2048031527192546 L0.0,-2.2599732258521597 L0.0,-2.309698825924638 L0.0,-2.3538601594690305 L0.0,-2.3923508378135967 L0.0,-2.4250781333951417 L0.0,-2.451963203159233 L0.0,-2.4729412785092113 L0.0,-2.4879618213460226 L0.0,-2.4969886458227792 L0.0,-2.500000005520749 " />
			<path d="M0.0,-2.5000000055207496 L0.0,-2.496988645819396 L0.0,-2.4879618213872696 L0.0,-2.472941278716911 L0.0,-2.451963203711198 L0.0,-2.4250781345005885 L0.0,-2.3923508396842865 L0.0,-2.35386016228916 L0.0,-2.309698829822811 L0.0,-2.2599732308787934 L0.0,-2.2048031588324832 L0.0,-2.1443215232452957 L0.0,-2.078674029672634 L0.0,-2.008018828646975 L0.0,-1.9325261346816482 L0.0,-1.8523778162130073 L0.0,-1.7677669574686032 L0.0,-1.6788973933165434 L0.0,-1.5859832182162592 L0.0,-1.4892482704532406 L0.0,-1.38892559289986 L0.0,-1.2852568716009138 L0.0,-1.178491853536019 L0.0,-1.0688877449611558 L0.0,-0.9567085917785522 L0.0,-0.842224643427433 L0.0,-0.7257117018279967 L0.0,-0.48772581058634734 L0.0,-0.245042853150975 L0.0,-1.3051319765271958e-14 " />
			<path d="M0.0,2.5 L0.8592395975246055,2.8697770347902263 L1.720422930397014,3.2354917041304914 L2.583533228091644,3.5971694944798043 L3.448553782155716,3.954835813044879 L4.315467946209253,4.308515987780131 L5.184259135945081,4.658235267387681 L6.054910829128829,5.00401882131735 L6.927406565598926,5.345891739766665 L7.8017299472666055,5.683879033680853 L8.677864638115903,6.018005634752846 L9.555794364203656,6.34829639542328 L10.435502913659507,6.674776088880494 L11.316974136685898,6.9974694090605265 L12.20019194555807,7.316400970647122 L13.085140314624075,7.631595309071729 L13.971803280304762,7.943076880513497 L14.860164941093782,8.250870061899281 L15.750209457557593,8.554999150903637 L16.641921052335448,8.855488365948823 L17.535284010139414,9.152361846204801 L18.430282677754345,9.445643651589243 L19.32690146403791,9.735357762767514 L20.22512483992058,10.021528081152686 L21.124937338405612,10.304178428905534 L22.026323554569093,10.583332548934537 L22.929268145559888,10.859014104895879 L23.833755830599678,11.131246681193439 L24.739771390982938,11.400053782978809 L25.647299670076947,11.665458836151279 L26.556325573321804,11.92748518735784 L27.46683406823038,12.186156103993195 L28.378810184388374,12.44149477419974 L29.292239013454274,12.693524306867578 L30.207105709159364,12.942267731634516 L31.123395487307754,13.187747998886064 L32.04109362577634,13.429987979755435 L32.96018546451483,13.669010466123545 L33.88065640554571,13.904838170619009 L34.80249191296429,14.137493726618153 L35.725677512938695,14.366999688245002 L36.650198793709826,14.593378530371282 L37.57604140559139,14.816652648616426 L38.503191060969904,15.036844359347565 L39.4316335343047,15.25397589967954 L40.36135466212789,15.468069427474889 L41.292340343044394,15.67914702134386 L42.22457653773194,15.887230680644395 L43.15804926894105,16.092342325482143 L44.092744621495065,16.294503796710462 L45.028648742290116,16.493736855930404 L45.96574784029514,16.690063185490732 L46.90402818655186,16.883504388487903 L47.84347611417484,17.07408198876609 L48.784078018351394,17.26181743091715 L49.725820356341686,17.446732080280665 L50.668689647478665,17.628847222943907 L51.612672473168075,17.80818406574185 L52.55775547688847,17.984763736257182 L53.5039253641912,18.15860728282028 L54.451168902700424,18.329735674509234 L55.39947292211312,18.498169801149835 L56.348824314199014,18.663930473315578 L57.2992100328007,18.82703842232765 L58.25061709383354,18.98751430025496 L59.20303257528569,19.145378679914113 L60.156443617218144,19.300652054869406 L61.110837421764664,19.45335483943286 L62.06620125313181,19.603507368664168 L63.02252243759897,19.75112989837076 L63.97978836351836,19.896242605107748 L64.93798648131492,20.038865586177955 L65.89710430348647,20.17901885963191 L66.85712940460357,20.316722364267836 L67.81804942130964,20.451995959631663 L68.77985205232085,20.58485942601703 L69.74252505842618,20.715332464465263 L70.70605626248746,20.843434696765406 L71.67043354943931,20.969185665454212 L72.6356448662891,21.092604833816118 L73.60167822211704,21.213711585883278 L74.56852168807615,21.332525226435536 L75.53616339739222,21.449064981000458 L76.50459154536388,21.563349995853294 L77.47379438936254,21.67539933801701 L78.4437602488324,21.78523199526227 L79.41447750529053,21.89286687610744 L80.38593460232673,21.9983228098186 L81.3581200456036,22.10161854640951 L82.33102240285659,22.20277275664166 L83.30463030389394,22.301804032024222 L84.27893244059668,22.398730884814082 L85.25391756691862,22.493571748015828 L86.22957449888641,22.58634497538175 L87.2058921145995,22.677068841411838 L88.18285935423012,22.765761541353786 L89.16046522002331,22.852441191203 L90.13869877629693,22.937125827702573 L91.11754914944164,23.01983340834332 L93.07705716227092,23.179388835750057 L95.03890351109237,23.331249548303717 L97.00300344165207,23.47555635284804 L98.96927319286097,23.612448788190044 L100.9376299967948,23.74206512509997 L102.90799207869418,23.86454236631133 L104.88027865696458,23.980016246520872 L106.85440994317624,24.088621232388597 L108.83030714206429,24.19049052253776 L110.80789245152872,24.285756047554862 L112.7870890626343,24.374548469989655 L114.76782115961068,24.456997184355135 L116.75001391985231,24.533230317127554 L118.73359351391854,24.603374726746413 L120.71848710553353,24.66755600361447 L122.70462285158625,24.725898470097718 L124.69192990213052,24.778525180525406 L126.68033840038505,24.825557921190025 L128.6697794827333,24.86711721034734 L130.66018527872365,24.90332229821634 L132.6514889110693,24.93429116697928 L134.64362449564828,24.96014053078165 L136.63652714150342,24.980985835732202 L138.63013295084247,24.99694125990294 L140.62437901903795,25.008119713329094 L142.61920343462725,25.014632838009174 L144.61454527931255,25.01659100790493 L146.61034462796093,25.01410332894135 L148.60654254860438,25.007277639006674 L150.60308110243952,24.99622050795242 L152.599903343828,24.981037237593313 L154.59695332029622,24.96183186170735 L156.59417607253545,24.938707146035785 L158.59151763440173,24.91176458828311 L160.58892503291602,24.881104418117072 L162.5863462882641,24.846825597168657 L164.58373041379662,24.809025819032108 L166.58102741602897,24.767801509264924 L168.5781882946415,24.723247825387855 L170.5751650424793,24.675458656884878 L172.57191064555232,24.624526625203252 L174.56837908303544,24.57054308375346 L176.56452532726823,24.513598117909243 L178.5603053437552,24.453780545007596 L180.5556760911657,24.391177914348756 L182.55059552133386,24.32587650719623 L184.54502257925867,24.25796133677674 L186.53891720310398,24.187516148280285 L188.5322403241985,24.114623418860106 L190.5249538670358,24.039364357632685 L192.5170207492741,23.96181890567777 L194.5084048817367,23.882065736038353 L196.49907116841163,23.800182253720667 L198.4889855064517,23.716244595694203 L200.4781147861747,23.630327630891692 L204.45389069776442,23.452848916505776 L208.42615388901922,23.268319701289798 L212.39467523641505,23.07729328738267 L216.35924150706532,22.880302688335288 L220.31965535872072,22.67786062911054 L224.27573533976945,22.470459546083305 L228.22731588923713,22.25857158704048 L232.1742473367868,22.042648611180923 L236.11639590271892,21.823122189115495 L240.05364369797132,21.600403602867104 L243.9858887241194,21.37488384587059 L247.91304487337584,21.1469336229728 L251.8350419285908,20.916903350432595 L255.7518255632519,20.68512315592083 L263.56961471804976,20.21753206872598 L271.3662955384185,19.74639561099496 L279.1420054752062,19.273624414926385 L294.63233375242345,18.329197249530697 L310.0467841604602,17.393043281966488 L317.7286001990177,16.929396267906967 L325.39560931325576,16.46876134313212 L340.69312982792985,15.554756385396827 L355.95773432478273,14.64423948260064 L363.58455185498974,14.186747311219401 L371.2118794272951,13.725227830054438 L378.843159745131,13.257371644999429 L382.6614275499841,13.020256840282388 L386.4820897621282,12.780544744539943 L390.30564822736073,12.537855384862768 L394.1326206821164,12.291788499753546 L397.96354075346756,12.041923539126957 L401.79895795912387,11.787819664309676 L405.6394377074325,11.529015748040376 L409.4855612973779,11.265030374469722 L413.337925918582,10.995361839160374 L417.19714465130426,10.71948814908699 L421.0638464664414,10.436867022636243 L424.9386762255278,10.14693588960676 L428.822294680735,9.849111891209168 L430.76761049953376,9.697052376464896 L432.7153784748721,9.542791880066142 L434.6656856700134,9.386251838498882 L436.61862014138563,9.227352420212299 L438.5742709385817,9.066012525618843 L440.5327281043594,8.902149787094244 L442.49408267464133,8.73568056897745 L444.45842667851485,8.566519967570645 L446.42585313823224,8.394581811139302 L448.3964560692107,8.21977865991215 L450.37033048003207,8.042021806081044 L452.34757237244315,7.861221273801256 L454.32827874135563,7.6772858191912405 L456.3125475748459,7.490122930332673 L458.3004778541553,7.299638827270527 L460.29216955369,7.10573846201298 L462.2877236410209,6.908325518531507 L464.2872420768838,6.707302412760805 L466.2908278151794,6.5025702925987785 L468.29858480297327,6.294029037906698 L470.3106179804956,6.081577260508964 L472.3270332811416,5.865112304193274 L474.3479376314714,5.644530244710603 L476.37343895120966,5.419725889775149 L478.4036461532462,5.190592779064354 L480.43866914363565,4.957023184218901 L482.4786188215971,4.718908108842732 L484.52360707951493,4.476137288503037 L486.57374680293816,4.228599190730302 L488.62915187058076,3.9761810150182164 L490.6899371543213,3.7187686928237005 L492.75621851920346,3.4562468875669494 L494.82811282343556,3.188498994631465 L496.90573791839034,2.915407141363957 " />
			<path d="M0.0,2.5 L0.0,2.49698863828282 L0.0,2.4879618118025526 L0.0,2.4729412696423227 L0.0,2.451963197566324 L0.0,2.425078132448904 L0.0,2.3923508414968744 L0.0,2.353860166721596 L0.0,2.3096988351758645 L0.0,2.259973235529075 L0.0,2.2048031616126047 L0.0,2.1443215236258197 L0.0,2.0786740277515716 L0.0,2.008018824988506 L0.0,1.9325261300659788 L0.0,1.85237781136583 L0.0,1.767766952833719 L0.0,1.678897388921209 L0.0,1.5859832136582301 L0.0,1.4892482650140173 L0.0,1.388925585763092 L0.0,1.2852568621312992 L0.0,1.178491841555393 L0.0,1.0688877309481113 L0.0,0.9567085769191477 L0.0,0.8422246294608952 L0.0,0.7257116906662846 L0.0,0.48772580853895253 L0.0,0.24504285612316212 L0.0,1.8207657603852536e-14 " />
			<path d="M300.0,0.0 L240.0,0.0 " />
			<path d="M120.3286862779,1.126493173753 L120.39592510017125,1.2276263493581516 L120.46517245890738,1.326731994686631 L120.53638459550046,1.4238461299500662 L120.60951775134264,1.519004775360086 L120.684528167826,1.6122439511283186 L120.76137208634266,1.7035996774663926 L120.84000574828472,1.7931079745859366 L120.92038539504432,1.8808048626985794 L121.00246726801353,1.966726362015949 L121.08620760858449,2.050908492749674 L121.17156265814928,2.133387275111383 L121.25848865810003,2.2141987293127046 L121.34694156395487,2.293379047412718 L121.4368663909093,2.3709709980271025 L121.62085448538195,2.5215953662180475 L121.80989362982736,2.666485777729048 L122.00342357931068,2.8060567374046905 L122.20088408889714,2.9407227500895603 L122.40171491365197,3.070898320628243 L122.60535580864035,3.1969979538653255 L122.81124652892751,3.319436154645392 L123.01883208537403,3.438624268396516 L123.2277676271205,3.554847320112997 L123.43798469542185,3.6682241871849484 L123.64943365085585,3.778862434142073 L123.86206485400032,3.8868696255140716 L124.07582866543305,3.9923533258306456 L124.29067544573182,4.095421099621497 L124.50655555547443,4.196180511416327 L124.72341935523866,4.294739125744837 L124.94121720560233,4.391204507136729 L125.1598994671432,4.485684220121706 L125.37941793327255,4.578279702250752 L125.82080713838947,4.7580677077127485 L126.26508728967254,4.931003205450266 L126.71196389927884,5.097507863262989 L127.16114247936548,5.258003348950603 L127.61232854208953,5.4129113303127925 L128.06522760708714,5.5626534667782765 L128.51958846581442,5.707602985479076 L128.97530502197304,5.847970695619735 L129.43230156379198,5.9839333983034 L129.8905023795002,6.115667894633217 L130.34983175732663,6.243350985712331 L130.81021398550033,6.367159472643887 L131.2715733522502,6.487270156531032 L131.7338352645443,6.603856974990737 L132.19694224868655,6.717050047574645 L132.66085020640864,6.826945258548037 L133.12551539507456,6.933637581911726 L133.59089407204834,7.037221991666528 L134.05694249469406,7.137793461813257 L134.5236169203757,7.235446966352728 L134.99087360645734,7.330277479285755 L135.45866881431652,7.42237996745133 L135.92696396212438,7.511840195845499 L136.3957357376085,7.598716682288254 L136.86496364138637,7.683062925245912 L137.3346271740754,7.764932423184796 L137.80470583629304,7.844378674571223 L138.27517912865676,7.921455177871514 L138.746026551784,7.996215431551986 L139.2172276062922,8.068712934078963 L139.68876179279883,8.139001183918761 L140.16060898944298,8.207132769819184 L140.63275367746246,8.273149188384401 L141.10518341292217,8.33708452677013 L141.5778858080692,8.398972736749283 L142.5240590264132,8.516743578579504 L143.47117423047075,8.626733328058354 L144.41913231821815,8.729213599369123 L145.36783610422046,8.824451522459247 L146.31721047974236,8.912662574502358 L147.26719448297442,8.994029133160922 L148.2177273836089,9.06873303445384 L149.16874845133796,9.136956114400018 L150.1201969627875,9.198880194723703 L151.07201708319448,9.254677018635986 L152.02416643279452,9.30449059010227 L152.9766049266307,9.348460182041354 L153.92929247974612,9.386725067372032 L154.88218900718385,9.4194245190131 L155.83525445588248,9.446697647183882 L156.7884525854438,9.468664113641424 L157.74175453524768,9.485405935765272 L158.69513228908733,9.497000823567728 L159.6485578307559,9.503526487061098 L160.60200314404665,9.505060636257689 L161.55544021458905,9.501680994943401 L162.5088433884062,9.493482991399143 L163.4621940011019,9.480614480330805 L164.4154746759313,9.46323297467193 L165.36866803614967,9.441495987356053 L166.32175670501218,9.415561031316711 L167.27472330577405,9.385585619487443 L168.2275515258017,9.351729154140854 L169.18023472595732,9.314168212929333 L170.13277142803574,9.273088536787919 L171.0851602021624,9.228675952463096 L172.03739961846267,9.181116286701352 L172.989488247062,9.130595366249178 L173.94142465033778,9.077298696276332 L174.89320615624527,9.021360548319329 L175.84482751624287,8.96280825860676 L176.7962831591423,8.901655772190358 L177.74756751375514,8.83791703412186 L178.6986750088931,8.771605989453004 L179.64960007336785,8.702736583235522 L180.60033726087323,8.631324037989843 L181.55088277926444,8.557400497293468 L182.50123400829915,8.481010092569317 L183.45138835255932,8.402197209177384 L184.40134321662688,8.321006232477659 L185.35109600508383,8.237481547830134 L186.30064412251295,8.151667540500624 L187.24998500782894,8.063604955678962 L188.19911622528664,7.973321249190899 L189.14803536773672,7.880840844962428 L190.09674002802979,7.786188166919535 L191.04522779901643,7.689387638988212 L191.99349627354727,7.590463685094442 L192.94154305013856,7.489440638793601 L193.88936586235266,7.38634067957308 L194.8369625814826,7.28118379002833 L195.78433108502418,7.173989853818365 L196.73146925047317,7.0647787546021945 L198.62504607705202,6.840384600927745 L200.5176757632729,6.608149202853483 L202.4093398978467,6.368181227373888 L204.3000198258857,6.120580763057631 L206.18969643508518,5.8654417692007765 L208.07834845386077,5.6028292712986225 L209.96595397407992,5.33279976526316 L211.85249034525194,5.05540340040217 L213.7379317826541,4.770663532554628 L215.62225166822577,4.4785964085525505 L217.50542185057083,4.179208844396819 L219.38741064501792,3.8724859245870578 L221.26818565656592,3.5584086397080754 L223.14771122822532,3.2369421018584235 L225.02594915066322,2.9080390102900506 L226.90285925297266,2.571644144241104 L228.778397504669,2.2276868140502346 L230.6525179694597,1.876089540487025 L232.52517073476014,1.5167612680572509 L233.46093049912156,1.3341675706849951 L234.39630326636794,1.14960282278802 L235.33128200116062,0.963053233870306 L236.2658593582551,0.7745041855746028 L237.20002772347522,0.5839403411936218 L238.13377935487398,0.39134604940379253 L239.06710619767574,0.19670489410397066 L239.99999999999986,2.9434061119802256e-14 " />
			<path d="M120.49302941685,1.689739760629 L120.3286862779,1.126493173753 " />
			<path d="M120.3286862779,-1.060980990399 L119.99999999999669,-1.0257370624935128e-12 " />
			<path d="M240.0,0.0 L238.12127756281598,-0.14671053490074065 L236.2423924372148,-0.29132357747078397 L232.48419237161772,-0.5749062374139218 L228.72550273356356,-0.8519272161807981 L224.96640619782016,-1.1233723030727756 L221.2069669936169,-1.3900302063622876 L217.447232201749,-1.6524879846419827 L213.68723262020953,-1.9111251522276145 L209.92698358005958,-2.1661099935170136 L206.16648574605642,-2.4173994941995196 L202.4057245121675,-2.664717992534254 L198.64467097760948,-2.9075506743041437 L194.8832833131265,-3.145154011892078 L191.12150691141088,-3.376534755248839 L189.24045269724792,-3.4895027110892713 L187.35927453243286,-3.6003804761615905 L185.47796222636202,-3.708954654543826 L183.59650656172113,-3.8150192194486823 L181.71489951485103,-3.918377181692092 L179.83313313380347,-4.018832058516344 L177.95119700962954,-4.11610131627718 L176.0690731860939,-4.209638094712359 L174.186742262594,-4.2988449478678845 L172.30418859931407,-4.383205192649449 L170.42142859283862,-4.462890127349392 L168.53849484449503,-4.538419046956711 L166.65541961321,-4.610305812794186 L164.77222219812273,-4.678839138688756 L162.88890758511704,-4.744059077474729 L161.0054799705544,-4.8059905516862695 L159.1219368951998,-4.864355001844204 L157.23826264152567,-4.918269316597607 L155.35443993145867,-4.966778738439214 L153.47045837442835,-5.0089111109452 L151.58632643738113,-5.04364664063383 L150.64420772174714,-5.057919379126908 L149.7020558141936,-5.0699570955983955 L148.75987414997874,-5.079606499307506 L147.81766932600573,-5.086674630431183 L146.87544822838328,-5.090964900491229 L145.93321774322015,-5.092280721009444 L144.99098475662507,-5.090425503507629 L144.04875724109996,-5.085196004583192 L143.10655341913153,-5.076326192449393 L142.16439714761717,-5.063515520580638 L141.2223123417897,-5.046463085106006 L140.28032291688186,-5.024867982154578 L139.3384535253812,-4.998423951158953 L138.39674264117386,-4.966724308952498 L137.45524101390458,-4.929273179976905 L136.5139998199814,-4.885571587925786 L135.57307023581234,-4.8351205564927575 L134.63251646003386,-4.777379731882758 L134.16242579923278,-4.745526597672411 L133.69249071642736,-4.711529064743105 L133.2227348107232,-4.675270102376313 L132.75318168122595,-4.636632679853505 L132.28385492704112,-4.595499766456151 L131.81477814727435,-4.551754331465725 L131.34597497252233,-4.505279083835016 L130.8774732026453,-4.4559222662867315 L130.4093089353945,-4.403463525012678 L129.94151925049624,-4.347674388469694 L129.4741412276767,-4.288326385114613 L129.00721194666215,-4.2251910434042665 L128.54076848717887,-4.158039891795493 L128.07484792895306,-4.0866444587451305 L127.60951831800503,-4.010728561716848 L127.14500440501335,-3.929774577112996 L126.68158039361317,-3.8431886872111494 L126.21952050627864,-3.7503770452629306 L125.7590989654838,-3.650745804519955 L125.30058999370276,-3.5437011182338383 L125.07213835626705,-3.487211290564743 L124.84426623541994,-3.428599626489559 L124.61700518402706,-3.3677063935997618 L124.39038669848483,-3.3043700876317623 L124.16444227518967,-3.238429204321982 L123.93920341053803,-3.1697222394068425 L123.71470160092628,-3.098087688622755 L123.49096834275086,-3.02336404770614 L123.26803513240823,-2.945389812393416 L123.04593346629477,-2.8640034784210013 L122.8247104932908,-2.7790318304151564 L122.60476285919749,-2.690040161153196 L122.38683096557189,-2.596336567074601 L122.17166971812308,-2.4972182926847935 L121.96003402256011,-2.391982582489175 L121.8557741647699,-2.336851077872135 L121.75267878459205,-2.2799266809931678 L121.65084224524021,-2.2211215474154566 L121.55035890992801,-2.1603478327021852 L121.45132314186907,-2.097517692416525 L121.35382930427703,-2.032543282121643 L121.25797065999974,-1.965337580668922 L121.16382082747496,-1.895828264759101 L121.0714364913426,-1.823955680875804 L120.98087378174864,-1.749660590372254 L120.89218882883912,-1.6728837546016473 L120.80543776276001,-1.5935659349171791 L120.72067671365731,-1.5116478926720738 L120.63796181167703,-1.427070389219527 L120.55734918696515,-1.3397741859127326 L120.4788949696677,-1.249700044104917 L120.40265528993065,-1.1567887251492752 L120.3286862779001,-1.0609809903991174 " />
			<path d="M120.49302941685,-1.591471485599 L120.3286862779,-1.060980990399 " />
			<path d="M120.3286862779,0.03275609167652 L119.99999999999997,3.378709292047015e-13 " />
			<path d="M240.0,0.0 L237.26516552512834,0.17883510907100125 L235.89751888318463,0.26595069964146534 L234.52992933081845,0.35058485524460964 L231.79404871230395,0.5164220901062075 L231.1093838642907,0.5584060940798498 L230.4245371220595,0.5956907285618211 L230.08210151540126,0.6110644436844734 L229.73968760493543,0.6234557101634596 L229.39731778057762,0.632261992575197 L229.0550144322435,0.6368807554961027 " />
			<path d="M229.05501443224344,0.6368807554961029 L228.84159093166897,0.6373743613383744 L228.62820742132814,0.635858977444228 L228.41486903075065,0.6321987002733229 L228.2015762334238,0.626416028477583 L227.7751145462766,0.6090758530670897 L227.34879611932877,0.5850400319121443 L226.9225946128092,0.5555135210298262 L226.4964836869467,0.5217012764372149 L225.64442821810837,0.4460394101894307 L224.79241899464458,0.36769408130542713 L224.36636664174912,0.3304925220116953 L223.94026430571904,0.2954370759579801 L223.0879319919065,0.23075517082351668 L222.23546961718654,0.17149502584044565 L218.8252458912571,-0.05326368045961639 L215.41518557871075,-0.2925307492474504 L213.71006828715298,-0.4106434852086283 L212.0048671494278,-0.5265159600456419 L208.59429703275532,-0.755303099140573 L205.1835492215315,-0.9823528749285532 L201.7725795199078,-1.206023278012157 L198.36135815545896,-1.4256366678399375 L194.949860888971,-1.6409780827297042 L191.53804572824257,-1.8512619336306537 L188.12586206036738,-2.0554687053572516 L184.71325070580016,-2.2523773543804975 L183.00676727374722,-2.3477135796541284 L181.30015728904692,-2.4407737126263065 L179.59341478020696,-2.531409481370866 L177.88653115532773,-2.6193810574769434 L176.17949256548877,-2.704264933308524 L174.4722845336745,-2.7856156557169327 L172.76489374824777,-2.863012763984101 L171.0573270666938,-2.9364683396185214 L169.3496084003256,-3.0063601964875866 L167.64176219727258,-3.073077660895846 L165.9338100191853,-3.1369603246211097 L164.22575925308354,-3.1981035481239206 L162.51761294206466,-3.256527845335433 L160.80937398655539,-3.3122469882240844 L159.10103908471038,-3.3649801691659365 L157.3925964476484,-3.4140434850870798 L155.68403367385991,-3.458723935870234 L153.97534107952734,-3.4983012516347887 L152.26652167615822,-3.532021202799663 L150.55758217928533,-3.5591196516014554 L148.84853147100102,-3.5788110302820346 L147.99397390288357,-3.5855671522600248 L147.1394029789065,-3.590066949278625 L146.28482485065675,-3.5921623529566626 L145.4302456697212,-3.5917052949129658 L144.57567159542327,-3.5885476335094695 L143.72111081839842,-3.582521992756519 L142.8665762704792,-3.5734161025956332 L142.01208155871902,-3.561011299349646 L141.15764029017123,-3.545088919341391 L140.3032660718893,-3.5254302988937014 L139.44897325990127,-3.501813644015039 L138.5947959348641,-3.4739347222882553 L137.74078939868542,-3.441400607791369 L136.88701000207362,-3.4038139911742005 L136.03351409573722,-3.3607775630865695 L135.18035804393952,-3.3118933842745735 L134.32759955819594,-3.2567009080206675 L133.47529882221295,-3.1946247036719386 L132.6235162845729,-3.1250770316594574 L132.19783823031352,-3.0873177266640197 L131.77231239385827,-3.047470152414294 L131.34694653328674,-3.0054603520744947 L130.92176988623052,-2.961162331587112 L130.49685190100925,-2.9143526808736295 L130.07226644245443,-2.86479729023721 L129.6480873753976,-2.812262049981018 L129.22438856467036,-2.7565128504082193 L128.80124387510418,-2.697315581821975 L128.37872717153056,-2.634436134525448 L127.9569122077319,-2.567640516987137 L127.5358471241792,-2.4967219923122936 L127.11552186255506,-2.421535751828552 L126.69591832418348,-2.341945542455966 L126.27701841038851,-2.2578151111145863 L125.85880402249413,-2.1690082047244617 L125.44125706182437,-2.075388570205648 L125.02437283708659,-1.9767960671346685 L124.60869683276492,-1.872090331172373 L124.40170793432429,-1.8166867717522646 L124.19550645370003,-1.758826967762196 L123.99025840239432,-1.6981940814941856 L123.78612979190936,-1.634471275240253 L123.5832866337473,-1.5673417112924042 L123.38189493941034,-1.4964885519426585 L123.18212072040066,-1.4215949594830306 L122.98412998822045,-1.342344096205535 L122.7880605762268,-1.2584826612820428 L122.5938119279375,-1.170294882047688 L122.40116359157855,-1.0783353291382862 L122.20989420648152,-0.9831606225907036 L122.01978241197787,-0.8853273824417868 L121.83060684739914,-0.7853922287284016 L120.32868627790012,0.03275609167645289 " />
			<path d="M120.3286862779,0.03275609167652 L121.09137638928729,0.5980573944939663 L121.47287333697916,0.8819108055372511 L121.856071226157,1.163574558115942 L122.0490544149836,1.3023049548443746 L122.24337061571792,1.4389326292233788 L122.43932746517194,1.5729312792713395 L122.63723260015762,1.7037746030066425 L122.83739365748688,1.8309362984476723 L123.04010688648917,1.9539078200555897 L123.24541727227904,2.0725724172846314 L123.45312431263568,2.187196126723905 L123.6630172734275,2.2980609395281046 L123.87488542052296,2.405448846851924 L124.08851801979048,2.509641839850058 L124.30370433709851,2.6109219096772014 L124.52023363831547,2.7095710474880472 L124.7378951893098,2.805871244437291 L125.17577210410431,2.9925527803697483 L125.61590383021195,3.172895972422047 L126.05796087465573,3.3474176086711362 L126.50191167614727,3.51625247124148 L126.9477246783489,3.679535335909724 L127.39536832492298,3.837400978452514 L127.84481105953186,3.989984174646495 L128.29601828885473,4.137422782234449 L128.74890417147077,4.279906666131846 L129.2033402174182,4.417668971493683 L129.6591966378755,4.5509441615730255 L130.1163436440211,4.67996669962294 L130.5746514470335,4.804971048896494 L131.03399025809108,4.926191672646754 L131.4942302957449,5.043863022639095 L131.95526227201464,5.158187618350265 L132.41704214279616,5.269266318267891 L132.87953881895316,5.377179794849808 L133.34272121134933,5.482008720553849 L133.80655823084828,5.583833767837848 L134.27101878831368,5.682735609159639 L134.73607179460916,5.7787949169770565 L135.20168616059843,5.872092363747934 L135.66783102060649,5.962707934209706 L136.13447961381246,6.0507089800806115 L136.60160878038724,6.13615177073653 L137.06919548264855,6.219092199636671 L137.53721668291408,6.299586160240246 L138.00564934350157,6.377689546006469 L138.47447042672874,6.45345825039455 L138.9436568949133,6.526948166863701 L139.41318571037291,6.598215188873132 L139.88303383596596,6.667315208793631 L140.35318054138284,6.73429947466014 L140.82361267986295,6.799203966578457 L141.29431866069177,6.862061531873129 L141.7652868931547,6.922905017868706 L142.70796375012466,7.03868114126076 L143.65155052505636,7.146795115351002 L144.59595449223326,7.2475097187358095 L145.54108620235112,7.34107921795954 L146.48687655619486,7.4277050104509765 L147.43326425608893,7.5075682253986935 L148.38018802031,7.5808499505478775 L149.32758656713463,7.647731273643717 L150.27539870463576,7.708393103547259 L151.2235707525149,7.76300138511314 L152.17206209353677,7.811696040109603 L153.1208334182686,7.854614385015792 L154.06984541727763,7.891893736310846 L155.01905878113106,7.923671410473904 L155.96843431669933,7.950084115095938 L156.91793755953677,7.971243801454699 L157.8675403106742,7.987229618866945 L158.81721480245457,7.998118458580125 L159.76693326722076,8.003987211841688 L160.7166679373157,8.004912769899084 L161.66639106350596,8.00097216074004 L162.61607802191696,7.992265608705529 L163.56571081266404,7.978942501262609 L164.51527228040976,7.961158494092618 L165.4647452698168,7.939069242876894 L166.4141126255478,7.912830403296775 L167.36335719226537,7.882597631033599 L168.31246331116694,7.84852924682207 L169.26142539685324,7.810801510276938 L170.21024201965352,7.769598081601693 L171.1589117629247,7.725102644199625 L172.1074332100237,7.677498881474021 L173.0558049443073,7.626970476828171 L174.00402553234903,7.573700417071037 L174.95209214010626,7.517813556784419 L175.89999949968296,7.459333734048643 L176.84774209975993,7.3982746837228435 L177.7953144290179,7.334650140666149 L178.74271097613763,7.268473839737692 L179.68992622979985,7.199759515796604 L180.63695482926084,7.128522440719722 L181.58379312702846,7.054795374610513 L182.5304385635282,6.97862218262561 L183.4768885965513,6.900046907184685 L184.42314068388907,6.819113590707412 L185.36919228333278,6.735866275613459 L186.31504085267488,6.650349003992944 L187.26068386395895,6.562601900309529 L188.20611883892786,6.472651426796384 L189.1513433101517,6.380521069277166 L190.09635481020055,6.286234313575534 L191.04115087164453,6.1898146455151455 L191.98572902705374,6.0912855509196575 L192.9300868222571,5.990670490942728 L193.87422213504678,5.887992309070834 L194.81813319091574,5.783273201841077 L195.76181823176546,5.676535335260182 L196.7052754994974,5.567800875334877 L198.59149968316564,5.344430838975772 L200.47678896989981,5.113312083681661 L202.36111659390122,4.874488993515672 L204.24445348380004,4.627981819673748 L206.12677693144082,4.373855427123511 L208.00809709403958,4.11240510654738 L209.88843470827692,3.844000323376686 L211.76778005065614,3.5687844376369027 L212.7070347791688,3.428349414667832 L213.64597773555735,3.2858195717410554 L214.58458406015436,3.141037319738528 L215.5228292672564,2.993847839240417 L217.39835136031522,2.693205269827867 L221.1477750235483,2.0842943296449175 L222.08473490440227,1.9302064948494915 L223.02095683159754,1.771144250509963 L223.48866924451957,1.688855538375961 L223.9560509873626,1.6042526001936928 L224.42305333290523,1.5169785614090787 L224.88963924196668,1.42676303685264 L225.82210242326465,1.2415232021418425 L226.2884027284121,1.149636655048208 L226.75503216251403,1.0603404636447302 L227.222203215037,0.9752107095681446 L227.69012837544767,0.8958234744551868 L227.9244401490692,0.858775827021548 L228.15902013321264,0.823754839942592 L228.3938948890613,0.7909575234229125 L228.62909050255428,0.7605774836392752 L228.86461143599834,0.7326534433650603 L229.1004320911385,0.7070088108488116 L229.57286129251213,0.6617877904034527 L230.0461555586855,0.6233744649296964 L230.52009234166903,0.5902288770540385 L230.99444909347295,0.5608110694029748 L231.46900326610765,0.5335810846030012 L232.41785451918534,0.47977714868691995 L234.313614409583,0.3645369016273486 L236.20914221320285,0.24589480993295296 L238.10471530359504,0.12471521057352007 L239.99999999999986,9.463379637950762e-15 " />
			<path d="M420.2731583231119,-0.9089621543609294 L420.19173366211,-0.638013297878 " />
			<path d="M490.0,0.0 L488.9065725381166,-0.15733411392131286 L487.8127085704745,-0.3116060053384559 L486.7184293388755,-0.46290586754280394 L485.6237544763327,-0.6113175971726693 L484.52870209518,-0.7569187931779343 L483.43328869243544,-0.8997797881358586 L482.33752962784325,-1.0399655723068366 L481.2414385291538,-1.1775322872515754 L480.145028210749,-1.312531750397892 L479.0483097942953,-1.4450058536406465 L477.95129358469956,-1.5749916647784759 L476.8539887311522,-1.702518317704274 L475.75640298878227,-1.8276053710583164 L474.6585437866872,-1.9502698033838242 L473.5604169377905,-2.07051522104077 L472.4620275940501,-2.188339761545245 L471.36338048762127,-2.3037371891095875 L470.2644788437785,-2.416685554701374 L469.1653255481276,-2.527159367020193 L468.06592311261994,-2.6351277819984427 L466.9662728150467,-2.740542275676057 L465.86637567874703,-2.843350678954224 L464.76623254544734,-2.9434964413163467 L463.6658434223747,-3.0409028799038462 L462.5652080772187,-3.1354875330023155 L461.46432625478434,-3.2271656049228916 L460.36319749277163,-3.315831163079299 L459.2618212187081,-3.401367030841335 L458.16019687521054,-3.483655297469706 L457.0583243737762,-3.562559720717212 L455.956204156952,-3.6379232962488013 L454.8538366971208,-3.7095878822317996 L453.7512232292829,-3.777383469069785 L452.64836704970196,-3.8411079700363002 L451.54527179946,-3.900553932380852 L450.44194170288887,-3.9555083102218433 L449.3383850892746,-4.005718692813061 L448.23461205026535,-4.0509157690631925 L447.1306329871818,-4.090828061736962 L446.02646420131225,-4.125143166340547 L444.92212735597377,-4.153511482732327 L443.81764443363875,-4.175581364692528 L442.71304493558665,-4.19095917416503 L441.6083700572024,-4.199185962605411 L440.50366208413885,-4.199796767265316 L439.95131114570495,-4.197090449517036 L439.39897444067395,-4.192274884693566 L438.8466617971184,-4.185270852432661 L438.2943830431105,-4.175999132372084 L437.74214800672286,-4.16438050414959 L437.18996674901075,-4.150334757145298 L436.63785341011317,-4.1337643432324365 L436.0858256041673,-4.114556948596867 L435.5339010562976,-4.09259978769134 L434.98209749162845,-4.067780074968601 L434.43043263528415,-4.039985024881398 L433.878926976475,-4.0090922889526315 L433.32761223753363,-3.974940655383054 L432.77652299397226,-3.937359041205409 L432.22569382130365,-3.8961763634510036 L431.6751592950405,-3.851221539151145 L431.1249567020881,-3.8023134617751446 L430.57514166750843,-3.7492032317213257 L430.0257774142552,-3.69161386126159 L429.47692718965277,-3.6292682725744276 L428.9286542638848,-3.5618893348255587 L428.38104428623774,-3.4891480178531755 L427.8342471469559,-3.410566310433521 L427.28842419180353,-3.325639634871749 L426.7437367665452,-3.233863413473013 L426.2003601022866,-3.134679213405873 L425.9292405282636,-3.0820474869658376 L425.6585466433142,-3.027229125848425 L425.38831334155867,-2.9701039425484095 L425.1185755171176,-2.9105517495605677 L424.84936806411133,-2.8484523593796767 L424.5807273597476,-2.783683649527427 L424.31274619014494,-2.7160499012297725 L424.0455899057429,-2.6452607215711685 L423.7794286355291,-2.5710194830990556 L423.5144325084912,-2.493029558360873 L423.2507716536169,-2.410994319904069 L422.98861621782873,-2.3246169809743105 L422.7281454974635,-2.233519488279944 L422.4695628127339,-2.1371104046712923 L422.2130753794398,-2.034763691781562 L421.9588904133808,-1.9258533112439549 L421.7072151362619,-1.8097532207762275 L421.5824511726207,-1.748766450702054 L421.4587638576864,-1.6855011482063258 L421.3365341468844,-1.6196436366207692 L421.21614299564015,-1.5508802392771106 L421.09797135937913,-1.4788972795070756 L420.98240019352687,-1.4033810806423908 L420.86981045350876,-1.324017966014782 L420.76058309322633,-1.2404942599664792 L420.6550713891821,-1.1525146386260405 L420.55353027328255,-1.0598489865264833 L420.45619284407655,-0.9622816650348568 L420.3632922001131,-0.859597035518212 L420.2750614399413,-0.7515794593435796 L420.1917336621101,-0.6380132978781199 " />
			<path d="M520.0,0.0 L490.0,0.0 " />
			<path d="M420.19173366211,-0.638013297878 L419.9999999999998,-7.386412633532258e-14 " />
			<path d="M420.19173366211,0.0 L420.2557597236723,-0.009228918945326682 L420.31941645884734,-0.016040794715833313 L420.38271487182,-0.020499616390816888 L420.4456659667754,-0.022669373049574407 L420.5082807478984,-0.02261405377140287 L420.5705702193742,-0.020397647635599273 L420.63254538538763,-0.016084143721460605 L420.6942172501237,-0.009737531108283883 L420.816695208281,0.008793382349253689 L420.93809615383674,0.03448558626257174 L421.0585169097336,0.06639584079483973 L421.17805458721386,0.10356675831010322 L421.2968062975199,0.1450409511724077 L421.414869151894,0.18986103174579877 L421.6493167378159,0.2857093054820227 L422.11410032271135,0.48123241565667574 L422.3457611013077,0.5768268293839907 L422.5777869342716,0.6697671392639383 L422.8108170025043,0.7591520698604669 L423.04549039856596,0.8440804790746174 L423.2822510253104,0.9239458345164631 L423.52093331520655,0.999061508312715 L423.761253074489,1.069919921173054 L424.0029261093923,1.1370134938071605 L424.24566822615105,1.2008346469247149 L424.4891952309999,1.261875801235398 L424.97754697892793,1.3774617491648067 L425.4670293962056,1.4856244786274269 L425.9576710279682,1.586669341416608 L426.4495271044354,1.6808595651060814 L426.94264727904203,1.7684634648432442 L427.4369659885308,1.8498544653421003 L427.9323092676178,1.9255048840186455 L428.428498938756,1.99589088104062 L428.9253568243983,2.061488616575765 L429.42272056736005,2.1227421932769515 L429.9205215984254,2.179905666996785 L430.41872577885516,2.2331633255574532 L430.91729902253195,2.2826993501509234 L431.4162072433385,2.3286979219691633 L431.91541661754695,2.3713406443281517 L432.41489632452306,2.4107796163134694 L432.9146174589394,2.447148119860707 L433.4145511464088,2.4805791329295306 L433.9146685125442,2.511205633479606 L434.4149406829584,2.5391605994705997 L434.91534131280326,2.564569277454262 L435.41585496811115,2.58752356542832 L435.9164691560998,2.608106371805987 L436.41717138403055,2.6264006048679813 L436.9179491591645,2.64248917289502 L437.41878998876274,2.6564549841678216 L437.9196818679789,2.6683786458959724 L438.92158483438317,2.6863555503947003 L439.92359662954254,2.696901511472518 L440.92565714672656,2.7004919238733938 L441.92771376200164,2.6975688052290696 L442.92973248694966,2.6884910492171454 L443.9316821856994,2.673604825692632 L444.9335327480691,2.653250434463251 L445.935263058376,2.6277166995812666 L446.9368566607889,2.5972657766460348 L447.9382971536421,2.5621594960906897 L448.93957074829007,2.5226420529988385 L449.9406692481602,2.4789199013905536 L450.9415851777729,2.431194628608203 L451.94231122808554,2.379666059207695 L452.94284257656,2.3245076824207973 L453.9431763127873,2.2658727355376307 L454.9433095754301,2.203913936112066 L455.94323992610083,2.1387802529115536 L456.9429669324751,2.070602874080891 L457.94249075637947,1.9995077215438837 L458.94181155338373,1.9256204568875142 L459.9409289154485,1.849043702785487 L460.93984143564467,1.769839249799583 L461.9385476045961,1.6880647007236023 L462.93704635305704,1.6037833966999813 L463.93534183204514,1.5171267398505814 L464.9334416104181,1.4282706935624936 L465.93135330650057,1.3373918404305143 L466.92907586853033,1.244530916194381 L467.92658365826384,1.1493434244578222 L468.923846709166,1.051417051189511 L469.9208428635259,0.9504602315665235 L471.9143347481218,0.7443025660628891 L473.9076416142746,0.5402901881646972 L474.4057467623646,0.4866985853841559 L474.9036455090999,0.43026686687747767 L475.4012779639628,0.3700771839195652 L475.89859867452043,0.3054348692669163 L476.8929375449631,0.17260395559329994 L477.3904480927497,0.11204246338838776 L477.63939681119706,0.08490069547590905 L477.88851569893285,0.0604898604641784 L478.13783566064654,0.039288668933768076 L478.3873876010274,0.021775831465250566 L478.6371953829619,0.0083228435096635 L478.8872412512236,-0.0013324570115163976 L479.1374922159998,-0.007684186711722443 L479.3879152646673,-0.011226809511215368 L479.88914556318264,-0.01186259008910483 L480.8922186114812,-0.0011812809277988192 L481.3935590868126,0.0025933870018388988 L481.8946660305553,0.00359785605745522 L483.89838989914585,-0.0007395006440293575 " />
			<path d="M483.898389899146,-0.0007395006440294122 L489.4257039438058,-5.167580909119928e-07 " />
			<path d="M489.4257039438059,-5.167580909120279e-07 L489.9999999999999,-3.333117450837791e-22 " />
			<path d="M420.19173366211,0.0 L420.0,0.0 " />
			<path d="M490.0,0.0 L489.4257039438044,5.167580909102169e-07 " />
			<path d="M489.4257039438045,5.167580909102165e-07 L483.8983898991418,0.0007395006440279006 " />
			<path d="M483.8983898991419,0.0007395006440278971 L481.89466603055087,-0.003597856057456829 L481.3935590868082,-0.0025933870018211005 L480.8922186114768,0.0011812809278441575 L479.8891455631782,0.011862590089123241 L479.3879152646629,0.01122680951116839 L479.13749221599545,0.007684186711630447 L478.8872412512193,0.0013324570113714285 L478.63719538295766,-0.008322843509869216 L478.38738760102314,-0.021775831465524507 L478.1378356606423,-0.0392886689341067 L477.8885156989287,-0.060489860464571416 L477.6393968111929,-0.08490069547634682 L477.3904480927456,-0.11204246338886117 L476.89293754495907,-0.172603955593818 L475.8985986745165,-0.30543486926743124 L475.4012779639589,-0.37007718392004074 L474.903645509096,-0.4302668668779152 L474.40574676236076,-0.4866985853845639 L473.90764161427086,-0.5402901881650836 L471.9143347481182,-0.7443025660632545 L469.92084286352247,-0.9504602315668752 L468.92384670916266,-1.0514170511898462 L467.92658365826054,-1.1493434244581413 L466.9290758685271,-1.2445309161946845 L465.9313533064975,-1.3373918404308025 L464.93344161041506,-1.428270693562765 L463.9353418320423,-1.5171267398508366 L462.9370463530543,-1.6037833967002209 L461.9385476045934,-1.6880647007238287 L460.93984143564194,-1.7698392497998 L459.9409289154458,-1.8490437027856967 L458.941811553381,-1.9256204568877169 L457.9424907563768,-1.9995077215440777 L456.9429669324724,-2.0706028740810747 L455.9432399260982,-2.1387802529117264 L454.9433095754275,-2.203913936112229 L453.9431763127847,-2.265872735537784 L452.94284257655744,-2.324507682420942 L451.94231122808293,-2.3796660592078314 L450.9415851777703,-2.43119462860833 L449.9406692481577,-2.4789199013906695 L448.9395707482876,-2.5226420529989424 L447.93829715363967,-2.562159496090782 L446.9368566607864,-2.5972657766461156 L445.9352630583735,-2.627716699581335 L444.93353274806657,-2.653250434463307 L443.93168218569696,-2.6736048256926757 L442.9297324869473,-2.6884910492171747 L441.9277137619993,-2.6975688052290847 L440.9256571467243,-2.700491923873394 L439.9235966295405,-2.6969015114725043 L438.9215848343812,-2.6863555503946723 L437.9196818679771,-2.668378645895931 L437.418789988761,-2.6564549841677736 L436.91794915916273,-2.6424891728949653 L436.4171713840289,-2.6264006048679205 L435.91646915609823,-2.608106371805921 L435.41585496810956,-2.587523565428249 L434.91534131280173,-2.5645692774541864 L434.4149406829569,-2.5391605994705206 L433.9146685125428,-2.511205633479524 L433.41455114640746,-2.4805791329294458 L432.91461745893815,-2.44714811986062 L432.41489632452186,-2.41077961631338 L431.9154166175458,-2.3713406443280594 L431.4162072433374,-2.328697921969067 L430.91729902253087,-2.282699350150823 L430.41872577885414,-2.2331633255573484 L429.92052159842444,-2.179905666996676 L429.4227205673591,-2.1227421932768378 L428.9253568243975,-2.0614886165756485 L428.4284989387552,-1.9958908810405014 L427.9323092676171,-1.925504884018523 L427.4369659885301,-1.8498544653419724 L426.9426472790413,-1.7684634648431088 L426.4495271044346,-1.6808595651059344 L425.95767102796736,-1.5866693414164446 L425.46702939620474,-1.485624478627245 L424.9775469789271,-1.3774617491646088 L424.48919523099903,-1.2618758012351823 L424.2456682261502,-1.2008346469244904 L424.0029261093914,-1.1370134938069223 L423.76125307448814,-1.0699199211728008 L423.5209333152057,-0.99906150831245 L423.2822510253096,-0.9239458345161857 L423.04549039856516,-0.8440804790743232 L422.8108170025035,-0.7591520698601631 L422.5777869342709,-0.6697671392636316 L422.34576110130695,-0.576826829383683 L422.11410032271067,-0.4812324156563792 L421.6493167378153,-0.28570930548176443 L421.41486915189347,-0.18986103174557573 L421.29680629751937,-0.14504095117220422 L421.1780545872134,-0.10356675830992737 L421.05851690973316,-0.06639584079469045 L420.93809615383634,-0.03448558626245318 L420.8166952082806,-0.00879338234917278 L420.69421725012336,0.009737531108326505 L420.63254538538723,0.01608414372148533 L420.57057021937385,0.020397647635606645 L420.50828074789814,0.0226140537713961 L420.4456659667751,0.022669373049557667 L420.3827148718198,0.02049961639079534 L420.3194164588472,0.01604079471581181 L420.2557597236722,0.00922891894531126 L420.19173366211015,2.3728100512715114e-14 " />
			<path d="M420.27390523158,0.0 L420.19173366211,0.0 " />
			<path d="M496.90573791839097,2.9154071413638802 L498.35194374084904,2.7563693037354104 L499.79782350335404,2.594394572581063 L501.2433704801179,2.42947710170083 L502.68857625713315,2.2615970766198625 L504.13343219557817,2.090732894588908 L505.5779282872231,1.9168535469255414 L507.0220530371947,1.7399178137782207 L508.46579450098454,1.5598817637134132 L509.9091387446718,1.376689799562025 L511.3520710577713,1.1902818602343117 L512.7945751056442,1.000589581507835 L514.2366332580635,0.8075380468852736 L515.6782263167527,0.6110452042272844 L517.1193336403693,0.41102262031606124 L518.5599328652116,0.20737480855526894 L519.9999999999999,2.0434098232365418e-14 " />
			<path d="M420.19173366211,0.638013297878 L420.2750614399413,0.7515794593435744 L420.3632922001131,0.8595970355181888 L420.4561928440765,0.9622816650348072 L420.55353027328243,1.0598489865263936 L420.65507138918196,1.152514638625912 L420.7605830932261,1.2404942599663265 L420.86981045350853,1.3240179660146132 L420.98240019352664,1.403381080642214 L421.0979713593789,1.4788972795068975 L421.2161429956399,1.5508802392769359 L421.3365341468841,1.6196436366206017 L421.45876385768617,1.6855011482061673 L421.58245117262044,1.7487664507019052 L421.70721513626165,1.809753220776088 L421.9588904133805,1.925853311243825 L422.2130753794395,2.03476369178144 L422.4695628127336,2.1371104046711826 L422.72814549746323,2.2335194882798466 L422.9886162178285,2.3246169809742248 L423.2507716536166,2.4109943199039954 L423.514432508491,2.493029558360808 L423.7794286355289,2.5710194830989996 L424.04558990574276,2.645260721571124 L424.3127461901448,2.7160499012297383 L424.58072735974747,2.7836836495273967 L424.8493680641113,2.8484523593796482 L425.1185755171175,2.9105517495605406 L425.38831334155856,2.9701039425483815 L425.658546643314,3.0272291258483945 L425.92924052826345,3.0820474869658034 L426.2003601022864,3.134679213405832 L426.74373676654494,3.2338634134729625 L427.28842419180324,3.3256396348716954 L427.83424714695553,3.4105663104334694 L428.38104428623745,3.4891480178531276 L428.9286542638845,3.561889334825515 L429.47692718965243,3.6292682725743894 L430.02577741425483,3.691613861261556 L430.5751416675081,3.7492032317212955 L431.12495670208784,3.802313461775118 L431.6751592950402,3.8512215391511226 L432.2256938213034,3.8961763634509854 L432.7765229939721,3.937359041205395 L433.32761223753346,3.9749406553830435 L433.87892697647493,4.009092288952624 L434.4304326352841,4.0399850248813935 L434.98209749162845,4.067780074968598 L435.5339010562977,4.092599787691338 L436.0858256041674,4.114556948596866 L436.6378534101132,4.133764343232436 L437.1899667490108,4.1503347571452975 L437.74214800672286,4.164380504149591 L438.29438304311054,4.175999132372085 L438.8466617971184,4.185270852432663 L439.398974440674,4.192274884693567 L439.951311145705,4.197090449517037 L440.5036620841389,4.199796767265317 L441.6083700572024,4.199185962605412 L442.71304493558665,4.190959174165031 L443.81764443363875,4.17558136469253 L444.92212735597366,4.153511482732329 L446.0264642013121,4.125143166340552 L447.1306329871815,4.09082806173697 L448.23461205026507,4.050915769063203 L449.3383850892743,4.005718692813074 L450.4419417028885,3.955508310221859 L451.54527179945967,3.900553932380869 L452.6483670497016,3.841107970036319 L453.7512232292826,3.7773834690698056 L454.85383669712047,3.7095878822318213 L455.9562041569517,3.6379232962488235 L457.05832437377586,3.5625597207172346 L458.1601968752102,3.483655297469729 L459.2618212187078,3.4013670308413597 L460.3631974927713,3.315831163079325 L461.464326254784,3.2271656049229187 L462.5652080772183,3.1354875330023435 L463.6658434223743,3.0409028799038746 L464.76623254544694,2.943496441316376 L465.86637567874675,2.8433506789542538 L466.96627281504647,2.7405422756760878 L468.06592311261966,2.635127781998475 L469.16532554812727,2.52715936702023 L470.264478843778,2.4166855547014183 L471.3633804876207,2.3037371891096425 L472.46202759404946,2.1883397615453086 L473.5604169377899,2.0705152210408397 L474.6585437866866,1.9502698033838957 L475.75640298878164,1.8276053710583837 L476.8539887311516,1.7025183177043324 L477.9512935846991,1.5749916647785243 L479.0483097942949,1.445005853640689 L480.1450282107486,1.3125317503979348 L481.2414385291534,1.1775322872516267 L482.3375296278427,1.0399655723069032 L483.4332886924348,0.8997797881359387 L484.52870209517937,0.7569187931780217 L485.623754476332,0.6113175971727579 L486.71842933887496,0.4629058675428863 L487.81270857047406,0.31160600533851535 L488.9065725381163,0.15733411392135593 L489.9999999999999,2.043365701405133e-14 " />
			<path d="M420.27390523158,0.911447568397 L420.19173366211,0.638013297878 " />
			<path d="M496.90573791839097,2.9154071413638802 L498.35194374084904,2.7563693037354104 L499.79782350335404,2.594394572581063 L501.2433704801179,2.42947710170083 L502.68857625713315,2.2615970766198625 L504.13343219557817,2.090732894588908 L505.5779282872231,1.9168535469255414 L507.0220530371947,1.7399178137782207 L508.46579450098454,1.5598817637134132 L509.9091387446718,1.376689799562025 L511.3520710577713,1.1902818602343117 L512.7945751056442,1.000589581507835 L514.2366332580635,0.8075380468852736 L515.6782263167527,0.6110452042272844 L517.1193336403693,0.41102262031606124 L518.5599328652116,0.20737480855526894 L519.9999999999999,2.0434098232365418e-14 " />
			<path d="M520.0,0.0 L490.0,-100.0 " />
			<path d="M420.0,-2.560487616841e-35 L420.0,-100.0 " />
			<path d="M420.19173366211,-100.0 L420.0,-100.0 " />
			<path d="M420.19173366211,-100.0 L420.2750614399413,-100.0 L420.3632922001131,-100.0 L420.4561928440765,-100.0 L420.55353027328243,-100.0 L420.65507138918196,-100.0 L420.7605830932261,-100.0 L420.86981045350853,-100.0 L420.98240019352664,-100.0 L421.0979713593789,-100.0 L421.2161429956399,-100.0 L421.45876385768617,-100.0 L421.70721513626165,-100.0 L421.9588904133805,-100.0 L422.2130753794395,-100.0 L422.4695628127336,-100.0 L422.9886162178285,-100.0 L423.514432508491,-100.0 L424.04558990574276,-100.0 L424.58072735974747,-100.0 L425.1185755171175,-100.0 L426.2003601022864,-100.0 L427.28842419180324,-100.0 L428.38104428623745,-100.0 L429.47692718965243,-100.0 L430.5751416675081,-100.0 L432.7765229939721,-100.0 L434.98209749162845,-100.0 L437.1899667490108,-100.0 L446.0264642013121,-100.0 L450.4419417028885,-100.0 L454.85383669712047,-100.0 L459.2618212187078,-100.0 L463.6658434223743,-100.0 L468.06592311261966,-100.0 L472.46202759404946,-100.0 L476.8539887311516,-100.0 L481.2414385291534,-100.0 L485.623754476332,-100.0 L489.9999999999999,-100.0 " />
			<path d="M420.27328952813343,-0.7492901140181195 L420.19173366211,-100.0 " />
			<path d="M0.0,6.661338147751e-16 L1.710672586170699,3.4471215838762473e-18 L3.4289669153692564,-6.375399980957501e-16 L5.154751810563798,-1.2571471179252588e-15 L6.887897065612754,-1.8556918391273203e-15 L8.628273445264854,-2.433489790485797e-15 L10.375752685159137,-2.9908546283457437e-15 L12.130207491824935,-3.5280980366134038e-15 L13.891511542681888,-4.045529726756213e-15 L15.659539486039938,-4.543457437802799e-15 L17.434166941099335,-5.022186936342982e-15 L19.21527049795062,-5.48202201652777e-15 L21.002727717574643,-5.923264500069364e-15 L22.796417131842563,-6.346214236241157e-15 L24.596218243515825,-6.751169101877731e-15 L26.402011526246184,-7.138425001374863e-15 L28.213678424575722,-7.508275866689519e-15 L30.031101353936776,-7.861013657339853e-15 L31.85416370065202,-8.196928360405217e-15 L33.68274982193443,-8.516307990526153e-15 L35.51674504588726,-8.819438589904386e-15 L37.3560356715041,-9.106604228302844e-15 L39.20050896866883,-9.378087003045635e-15 L41.05005317815559,-9.63416703901807e-15 L42.90455751162891,-9.875122488666638e-15 L44.76391215164353,-1.0101229531999034e-14 L46.628008251644566,-1.0312762376584132e-14 L48.49673793596738,-1.0509993257552003e-14 L50.3699942998377,-1.0693192437593907e-14 L52.24767140937148,-1.08626282069623e-14 L54.129664301575026,-1.1018566883470822e-14 L56.01586898434496,-1.1161272812494307e-14 L57.906182436468164,-1.1291008366968788e-14 L59.800502607621844,-1.1408033947391475e-14 L61.6987284183735,-1.1512607981820778e-14 L63.60075976018094,-1.1604986925876301e-14 L65.5064974953923,-1.1685425262738834e-14 L67.41584345724594,-1.1754175503150355e-14 L69.32870044987065,-1.181148818541404e-14 L71.24497224828542,-1.185761187539426e-14 L73.16456359839954,-1.1892793166516561e-14 L75.08738021701265,-1.19172766797677e-14 L77.0133287918147,-1.193130506369561e-14 L78.9423169813859,-1.1935118994409421e-14 L80.87425341519678,-1.192895717557946e-14 L82.80904769360818,-1.191305633843723e-14 L84.74661038787123,-1.1887651241775444e-14 L86.68685304012739,-1.1852974671947992e-14 L88.62968816340837,-1.1809257442869961e-14 L90.57502924163624,-1.175672839601763e-14 L92.52279072962335,-1.1695614400428464e-14 L94.47288805307232,-1.1626140352701131e-14 L96.42523760857614,-1.1548529176995472e-14 L98.37975676361803,-1.1463001825032538e-14 L100.33636385657157,-1.1369777276094563e-14 L104.25552006415933,-1.1161102642228365e-14 L108.1820723561339,-1.0924217660878575e-14 L112.11540239153466,-1.0660803158505957e-14 L116.05490736364581,-1.0372508402550318e-14 L119.99999999999622,-1.0060951101430551e-14 " />
			<path d="M240.00000000000003,3.508099836983327e-15 L243.9084355729796,3.906486137850934e-15 L247.811845432399,4.2928431089592834e-15 L251.71016027838616,4.6666058830329314e-15 L255.60332631899308,5.027241098344634e-15 L259.4913052701958,5.374246898715346e-15 L263.3740743558945,5.707152933514302e-15 L267.2516263079132,6.0255203576588526e-15 L271.1239693660002,6.328941831614693e-15 L274.9911272778278,6.617041521395623e-15 L278.8531392989922,6.889475098563772e-15 L282.7100601930139,7.14592974022946e-15 L286.56196023133714,7.386124129051162e-15 L290.4089251933305,7.60980845323565e-15 L294.25105636628666,7.816764406537903e-15 L298.08847054542207,8.006805188261142e-15 L301.92130003387734,8.179775503256718e-15 L305.7496926427172,8.335551561924322e-15 L309.5738116909305,8.474041080211819e-15 L313.39383600542976,8.595183279615257e-15 L317.2099599210521,8.698948887178978e-15 L321.0223932805583,8.785340135495496e-15 L324.8313614346334,8.854390762705588e-15 L328.6371052418864,8.906166012498183e-15 L332.4398810688503,8.940762634110503e-15 L336.2399607899823,8.958308882328006e-15 L340.0376317876636,8.958964517484276e-15 L347.6269746818187,8.910400517688906e-15 L355.2105189688462,8.796978828357935e-15 L362.79112199306155,8.621111731896613e-15 L370.3718892255648,8.385715599481582e-15 L377.956174264241,8.094210891061121e-15 L381.7507518074007,7.928624551356196e-15 L385.54757883376004,7.75052215535512e-15 L389.3471443287128,7.560473035518467e-15 L393.14995278557683,7.359078029854935e-15 L396.9565242055942,7.146969481921567e-15 L400.76739409793083,6.9248112408235325e-15 L404.5831134796769,6.693298661214293e-15 L408.4042488758465,6.453158603295391e-15 L412.2313823193779,6.205149432816837e-15 L416.0651113511333,5.950061021076697e-15 L419.90604901989894,5.688714744921191e-15 L421.8294169113544,5.555960202750577e-15 L423.7548238823853,5.4219634867449876e-15 L425.6823509256937,5.286836129945703e-15 L427.6120800032267,5.150691634490716e-15 L429.54409404617684,5.013645471614781e-15 L431.4784769549817,4.875815081649492e-15 L433.4153135993242,4.737319874023e-15 L435.35468981813267,4.5982812272603894e-15 L437.29669241958044,4.4588224889835075e-15 L439.24140918108617,4.3190689759109304e-15 L441.1889288493139,4.1791479738579965e-15 L443.1393411401729,4.03918873773675e-15 L445.09273673881756,3.8993224915560936e-15 L447.0492072996476,3.75968242842166e-15 L449.008845446308,3.620403710535923e-15 L450.9717447716889,3.4816234691978785e-15 L452.93799983792593,3.34348080480355e-15 L454.9077061763997,3.206116786845602e-15 L456.8809602877362,3.0696744539134632e-15 L458.85785964180667,2.9342988136934753e-15 L460.8385026777276,2.800136842968424e-15 L462.82298880386077,2.6673374876181352e-15 L464.81141839781316,2.536051662619114e-15 L466.803892806437,2.406432252044652e-15 L468.8005143458298,2.2786341090648272e-15 L470.8013863013342,2.1528140559462383e-15 L472.8066129275384,2.0291308840526902e-15 L474.8162994482756,1.907745353844324e-15 L476.8305520566243,1.788820194878414e-15 L478.8494779149082,1.6725201058086065e-15 L480.87318515469644,1.559011754385609e-15 L482.9017828768033,1.4484637774568258e-15 L484.93538115128814,1.341046780966354e-15 L486.9740910174553,1.2369333399552666e-15 " />
			<path d="M488.28697807036355,1.1718515616607268e-15 L489.67205581559637,1.1049128230238988e-15 " />
			<path d="M0.0,-2.50000000552075 L0.804806855846645,-2.846787235708567 L1.6111038475343205,-3.18987124310853 L2.4188680091018244,-3.52927637595033 L3.228076568937256,-3.865026899580691 L4.038706949778016,-4.197146996463377 L4.850736768710806,-4.525660766179183 L5.664143837171627,-4.850592225425943 L6.478906160945784,-5.171965308018523 L7.295001940167884,-5.489803864888831 L8.112409569321828,-5.804131664085803 L8.931107637240826,-6.114972390775415 L9.751074927107386,-6.42234964724068 L10.572290416453319,-6.726286952881643 L11.394733277159732,-7.026807744215387 L12.218382875457037,-7.3239353748760285 L13.04321877192495,-7.617693115614721 L13.869220721492482,-7.9081041542996555 L14.696368673437952,-8.195191595916057 L15.52464277138897,-8.478978462566182 L16.354023353322454,-8.75948769346933 L17.184490951564626,-9.036742144961835 L18.016026292791,-9.310764590497058 L18.848610298026404,-9.581577720645408 L19.682224082644957,-9.849204143094319 L20.51684895637008,-10.113666382648269 L21.352466423274493,-10.374986881228764 L22.189058181780226,-10.633187997874355 L23.026606124658606,-10.888292008740617 L23.865092339030262,-11.140321107100174 L24.704499106365112,-11.389297403342672 L25.544808902482394,-11.635242924974802 L26.386004397550643,-11.87817961662029 L27.228068456087684,-12.118129340019893 L28.070984136960643,-12.355113874031403 L28.914734693385967,-12.589154914629658 L29.759303572929394,-12.820274074906521 L30.604674417505937,-13.048492885070889 L31.45083106337996,-13.273832792448708 L32.29775754116509,-13.496315161482945 L33.14543807582425,-13.715961273733612 L33.99385708666971,-13.932792327877756 L34.842999187363006,-14.146829439709453 L35.69284918591496,-14.358093642139819 L36.54339208468573,-14.566605885197008 L37.39461308038476,-14.772387036026204 L38.24649756407081,-14.975457878889635 L39.09903112115191,-15.17583911516656 L39.9521995313854,-15.373551363353265 L40.80598876887795,-15.568615159063082 L41.66038500208552,-15.761050955026386 L42.515374593813334,-15.950879121090567 L43.37094410121595,-16.138119944220065 L44.22708027579723,-16.322793628496356 L45.083770063410334,-16.50492029511794 L45.94100060425771,-16.68451998240037 L46.798759232891115,-16.86161264577622 L47.657033478211616,-17.03621815779511 L48.51581106346957,-17.208356308123683 L49.375079906264624,-17.378046803545626 L50.23482811854576,-17.545309267961667 L51.095044006611225,-17.710163242389562 L51.95571607110858,-17.8726281849641 L52.81683300703473,-18.032723470937114 L53.6783837037358,-18.190468392677467 L54.54035724490726,-18.345882159671056 L55.4027429085939,-18.498983898520823 L56.26553016718977,-18.649792652946733 L57.128708687438255,-18.7983273837858 L57.99226833043201,-18.94460696899206 L58.85619915161303,-19.088650203636593 L59.72049140077259,-19.230475799907516 L60.585135522051246,-19.37010238710998 L61.450122153938864,-19.507548511666158 L62.31544212927466,-19.642832637115287 L63.18108647524709,-19.775973144113618 L64.04704641339394,-19.906988330434437 L64.91331335960227,-20.03589641096808 L65.77987892410852,-20.162715517721903 L66.64673491149829,-20.28746369982031 L67.51387332070662,-20.41015892350474 L68.38128634501778,-20.53081907213365 L69.24896637206537,-20.649461946182562 L70.98509795665068,-20.880766658027564 L72.72221106251722,-21.10421380518451 L74.46025178730852,-21.319942807670728 L76.19916933825697,-21.52809175937612 L77.93891603218373,-21.728797428063164 L79.67944729549878,-21.922195255366898 L81.4207216642009,-22.108419356794933 L83.16270078387775,-22.287602521727457 L84.90534940970578,-22.45987621341722 L86.64863540645021,-22.62537056898955 L88.39252974846512,-22.78421439944234 L90.13700651969344,-22.93653518964605 L91.88204291366684,-23.082459098343723 L93.6276192335059,-23.222110958150953 L95.37371889191992,-23.35561427555593 L97.12032841120708,-23.48309123091939 L98.8674374232544,-23.60466267847465 L100.61503866953764,-23.7204481463276 L102.36312800112142,-23.830565836456692 L104.11170437865921,-23.93513262471296 L105.86076987239323,-24.034264060819993 L107.61032966215461,-24.128074368373966 L109.36039203736317,-24.216676444843607 L110.6821247759074,-24.279849312679126 L112.00398066160807,-24.340113954968793 L113.32595336072615,-24.397511701660058 L114.64803666694652,-24.452083541937053 L115.97022450137798,-24.50387012422057 L117.29251091255317,-24.552911756168076 L118.61489007642861,-24.599248404673705 L119.93735629638473,-24.642919695868258 L121.25990400322583,-24.68396491511921 L122.5825277551801,-24.722423007030695 L123.9052222378996,-24.758332575443532 L125.2279822644603,-24.791731883435197 L126.55080277536202,-24.822658853319837 L127.87367883852849,-24.851151066648274 L129.19660564930732,-24.877245764207988 L130.51957853047,-24.900979846023137 L131.8425929322119,-24.92238987135455 L133.16564443215228,-24.94151205869972 L134.4887287353343,-24.9583822857928 L135.81184167422498,-24.973036089604637 L137.1349792087152,-24.98550866634272 L138.45813742611978,-24.99583487145123 L139.78131254117739,-25.004049219610998 L141.10450089605058,-25.010185884739535 L142.42769896032584,-25.014278699991017 L143.75090333101346,-25.016361157756297 L146.39731801678656,-25.014627266574966 L149.04372027793025,-25.005245335055697 L151.69008747778693,-24.98847103484535 L154.33639901848122,-24.964554585377495 L156.98263634091992,-24.9337407538724 L159.62878292479186,-24.89626885533705 L162.27482428856814,-24.852372752565117 L164.92074798950193,-24.802280856137 L167.56654362362852,-24.74621612441979 L170.21220282576544,-24.684396063567284 L172.85771926951224,-24.61703272751999 L175.50308866725072,-24.544332718005123 L178.1483087701448,-24.466497184536593 L180.79337936814045,-24.38372182441503 L183.43830228996595,-24.296196882727752 L186.08308140313156,-24.2041071523488 L188.72772261392979,-24.107631973938915 L191.37223386743528,-24.006945235945533 L194.01662514750475,-23.902215374602807 L197.20270246579148,-23.770928778797646 L200.38855627973567,-23.634384083503907 L203.57419223567453,-23.49286826065589 L206.75961638988446,-23.346660932553498 L209.94483520858097,-23.196034371862225 L213.12985556791878,-23.041253501613173 L216.31468475399168,-22.882575895203036 L219.49933046283272,-22.720251776394115 L222.68380080041405,-22.554524019314297 L225.86810428264693,-22.38562814845708 L229.05224983538187,-22.21379233868155 L232.23624679440843,-22.03923741521241 L235.42010490545545,-21.862176853639934 L238.60383432419079,-21.68281677992002 L244.97094975709405,-21.31798585168942 L249.34481896746124,-21.063256203788356 L253.71852141603523,-20.805715011283844 L262.46552682820237,-20.28391689740022 L271.21215118810596,-19.755741186935765 L279.9585534401981,-19.22387654402888 L297.4511961484643,-18.157530053647363 L306.19762324325063,-17.62612047065546 L314.9442015074499,-17.097166484186598 L329.08723462648453,-16.247653161604916 L343.23058970849047,-15.403517481644469 L357.3739521401621,-14.55950341661739 L364.4454768343869,-14.13489099791581 L371.5167843648242,-13.706666771939922 L377.6122412942758,-13.332283629577008 L383.7073169383339,-12.953679109081337 L389.80195635792535,-12.56914193557466 L392.84908981805296,-12.374110175990621 L395.8960845105431,-12.176947468959549 L398.9429279139209,-11.977436146153766 L401.9896062502469,-11.775357703919404 L405.03610448511694,-11.570492803276387 L408.08240632766257,-11.36262126991845 L411.12849423055036,-11.151522094213123 L414.1743493899826,-10.936973431201737 L417.2199517456968,-10.718752600599426 L420.26527998096515,-10.496636086795187 " />
			<path d="M489.9782422226877,0.003161853490784377 L483.898389899141,0.0007395006440273951 " />
			<path d="M489.9999954590791,6.600226132816045e-07 L489.42570394380687,5.167580909109765e-07 " />
			<path d="M483.898389899141,-0.0007395006440274691 L489.97824222274056,-0.003161853483092248 " />
			<path d="M489.42570394380624,-5.167580909121639e-07 L489.99999545907906,-6.600226135313568e-07 " />

       </g>
    </g>
    
</svg>
