<?xml version="1.0" encoding="UTF-8" standalone="no"?>
<svg
   xmlns:svg="http://www.w3.org/2000/svg"
   xmlns="http://www.w3.org/2000/svg"
   width="800.0"
   height="240.0"

>
    <g transform="scale(0.3461538460207097, -0.3461538460207097)   translate(977.7777781000007,-577.7777779000006)" stroke-width="2.888888890000003"  fill="none">
       <!-- hidden lines -->
       <g  stroke="rgb(160,160,160)" fill="none" stroke-dasharray="2.888888890000003,2.888888890000003" >

       </g>

       <!-- solid lines -->
       <g  stroke="rgb(0,0,0)" fill="none">
			<path d="M-3.25,0.0 L3.2500000071770843,0.0 " />
			<path d="M3.250000007177082,0.0 L3.2460852395697204,0.0 L3.234350367749936,0.0 L3.2148236620620776,0.0 L3.1875521641071014,0.0 L3.15260157341378,0.0 L3.1100560891577627,0.0 L3.0600182073098185,0.0 L3.002608473702101,0.0 L2.937965193607871,0.0 L2.8662440985350868,0.0 L2.7876179710376072,0.0 L2.7022762284492274,0.0 L2.610424466544882,0.0 L2.5122839642301114,0.0 L2.4080911504538314,0.0 L2.298097034630408,0.0 L2.1825666019448366,0.0 L2.0617781749989543,0.0 L1.9360227433370742,0.0 L1.8056032624660927,0.0 L1.6708339240570873,0.0 L1.5320393990834547,0.0 L1.3895540557136206,0.0 L1.2437211538343915,0.0 L1.0948920181344932,0.0 L0.9434251917248164,0.0 L0.6340435330008828,0.0 L0.31855569769826264,0.0 L3.008704396734166e-14,0.0 " />
			<path d="M-3.25,0.0 L-3.8377188056150087,0.8543753387169973 L-4.418050066572848,1.7106725861707484 L-4.991043169709394,2.5688752542113034 L-5.556747349199732,3.4289669153693554 L-6.115211686558149,4.2909312028562425 L-6.666485110638142,5.154751810563948 L-7.2106163976324105,6.020412493065095 L-7.7476541710728615,6.887897065612954 L-8.277646901830607,7.757189404141437 L-8.800642908115973,8.628273445265107 L-9.316690355478476,9.501133186279159 L-9.825837256806851,10.375752685159439 L-10.328131472329037,11.25211606056244 L-10.823620709612173,12.130207491825288 L-11.312352523562609,13.010011218965767 L-11.794374316425904,13.891511542682295 L-12.269733337786814,14.774692824353936 L-12.73847668456931,15.659539486040398 L-13.200651301036562,16.546036010482037 L-13.656303978790953,17.434166941099846 L-14.105481356774064,18.32391688199547 L-14.548229921266689,19.215270497951185 L-14.984596005888825,20.108212514429926 L-15.414625791599674,21.002727717575265 L-15.838365306697645,21.89880095421141 L-16.255860426820355,22.796417131843235 L-16.66715687494462,23.695561218656227 L-17.072300221386474,24.59621824351655 L-17.47133588380115,25.498373295970985 L-17.864309127183077,26.40201152624697 L-18.25126506386591,27.307118145252584 L-18.632248653522502,28.213678424576553 L-19.007304703164905,29.12167769648825 L-19.37647786714438,30.031101353937665 L-19.7398126471514,30.941934850555473 L-20.097353392215638,31.854163700652965 L-20.449144298705974,32.767773479222086 L-20.795229410330503,33.68274982193543 L-21.135652618136515,34.59907842514622 L-21.470457660510498,35.51674504588832 L-21.79968812317817,36.435735501876266 L-22.123387439204443,37.35603567150522 L-22.441598888993425,38.27763149385098 L-22.754365600288445,39.20050896866999 L-23.061730548172026,40.12465415639936 L-23.363736555065916,41.05005317815682 L-23.660426290731046,41.976692215740755 L-23.95184227226756,42.90455751163019 L-24.23802686411482,43.83363536898478 L-24.51902227805138,44.763912151644874 L-24.79487057319501,45.6953742841314 L-25.06561365600267,46.62800825164596 L-25.331293280270554,47.56180060007081 L-25.59195104713403,48.49673793596884 L-25.8476284050677,49.432806926583574 L-26.098366649885346,50.369994299839206 L-26.344206924739982,51.30828684434054 L-26.585190220123806,52.24767140937305 L-26.821357373868235,53.18813490490283 L-27.052749071143886,54.12966430157666 L-27.279405844460584,55.072246630721914 L-27.50136807366737,56.01586898434664 L-27.718675985952466,56.96051851513953 L-27.931369655843323,57.9061824364699 L-28.139489005206592,58.85284802238773 L-28.343073803248124,59.80050260762364 L-28.542163666512984,60.74913358758889 L-28.73679805888543,61.69872841837535 L-28.92701629158895,62.64927461675562 L-29.11285752318621,63.60075976018286 L-29.294360759579103,64.55317148679092 L-29.47156485400872,65.50649749539426 L-29.644508507055352,66.46072554548803 L-29.81323026663851,67.41584345724799 L-29.977768528016895,68.37183911153055 L-30.13816153378843,69.32870044987276 L-30.294447373890232,70.2864154744923 L-30.446663985598633,71.24497224828757 L-30.594849153529157,72.2043588948375 L-30.73904050963655,73.16456359840174 L-30.879275533214756,74.12557460392057 L-31.015591550896925,75.08738021701491 L-31.14802573665542,76.04996880398633 L-31.27661511180179,77.01332879181702 L-31.401396544986824,77.97744866816983 L-31.522406752200478,78.94231698138829 L-31.639682296771948,79.90792234049648 L-31.753259589369616,80.87425341519922 L-31.86317488800107,81.84129893588192 L-31.96946429801311,82.80904769361067 L-32.072163772091756,83.77748854013218 L-32.1713091102622,84.74661038787379 L-32.26693595988887,85.71640220994352 L-32.359079815675386,86.68685304013002 L-32.44777601966458,87.65795197290254 L-32.53305976123848,88.62968816341106 L-32.61496607711834,89.60205082748612 L-32.69352985136459,90.57502924163899 L-32.7687858153769,91.5486127430615 L-32.84076854789412,92.52279072962614 L-32.909512474994315,93.49755265988611 L-32.97505187009477,94.4728880530752 L-33.037420853951936,95.44878648910782 L-33.09665339466152,96.42523760857905 L-33.152783307658396,97.40223111276467 L-33.20584425571667,98.379756763621 L-33.255869748949635,99.35780438378511 L-33.30289314480981,100.33636385657461 L-33.346947648088886,101.31542512598783 L-33.38806631091781,102.29497819670371 L-33.426282032766686,103.27501313408185 L-33.46162756044486,104.25552006416248 L-33.49413548810085,105.23648917366648 L-33.52383825722242,106.2179107099954 L-33.550768156636515,107.19977498123136 L-33.57495732250928,108.1820723561372 L-33.59643773834608,109.16479326415636 L-33.615241234991494,110.14792819541296 L-33.631399490629285,111.13146770071172 L-33.644944030782426,112.11540239153805 L-33.6559062283131,113.09972294005799 L-33.66431730342272,114.08442007911819 L-33.67020832365187,115.06948460224599 L-33.67361020388036,116.05490736364932 L-33.67455370632719,117.04067927821683 L-33.67306944055058,118.02679132151773 L-33.66918786344794,119.01323452980195 L-33.66293927925591,119.99999999999986 " />
			<path d="M-16.96625429593023,297.45506185561044 L-16.78887251435627,299.38377326693666 L-16.613957461404564,301.31133683326914 L-16.441525675311404,303.2377715375232 L-16.271591197578385,305.163097355033 L-16.104165572972757,307.0873352535515 L-15.939257849527195,309.0105071932509 L-15.776874578539994,310.9326361267217 L-15.617019814574906,312.85374599897386 L-15.459695115461237,314.77386174743583 L-15.304899542293745,316.6930093019552 L-15.152629659432833,318.6112155847984 L-15.002879534504292,320.52850851065057 L-14.855640738399511,322.444916986616 L-14.710902345275404,324.36047091221775 L-14.568650932554343,326.2752011793977 L-14.428870580924345,328.1891396725168 L-14.291542874338786,330.1023192683546 L-14.156646900016668,332.01477383611007 L-14.024159248442544,333.9265382374004 L-13.894054013366313,335.83764832626207 L-13.76630279180367,337.74814094915047 L-13.640874684035566,339.65805394493975 L-13.517736293608646,341.56742614492305 L-13.396851727334996,343.4762973728122 L-13.27818259529221,345.38470844473807 L-13.16168801082351,347.2927011692507 L-13.047324590537496,349.2003183473184 L-12.935046454308411,351.10760377232884 L-12.716550029845312,354.9213594988224 L-12.50578176173816,358.7343385442097 L-12.302284726539218,362.546926982671 L-12.105562053049209,366.35952676708877 L-11.915076922316976,370.17255572904804 L-11.730252567639889,373.98644757883585 L-11.550472274563594,377.8016519054416 L-11.375079380882081,381.61863417655684 L-11.203377276637635,385.4378757385755 L-11.03462940412106,389.25987381659365 L-10.702850384675392,396.91420781452433 L-10.373050905837191,404.5859315451629 L-10.206627655011168,408.4297263341994 L-10.037900386872092,412.2795944425594 L-9.865852909448794,416.1361442462549 L-9.689429083018863,419.99999999999943 " />
			<path d="M-16.966254295930263,297.45506185561044 L-400.0,240.0 " />
			<path d="M-400.0,120.3286862779 L-400.0,119.99999999999669 " />
			<path d="M-400.0,240.0 L-400.0,224.96640619782016 L-400.0,209.92698358005958 L-400.0,194.8832833131265 L-400.0,187.35927453243286 L-400.0,179.83313313380347 L-400.0,172.30418859931407 L-400.0,164.77222219812273 L-400.0,157.23826264152567 L-400.0,149.7020558141936 L-400.0,142.16439714761717 L-400.0,138.39674264117386 L-400.0,134.63251646003386 L-400.0,132.75318168122595 L-400.0,130.8774732026453 L-400.0,129.00721194666215 L-400.0,128.07484792895306 L-400.0,127.14500440501335 L-400.0,126.21952050627864 L-400.0,125.30058999370276 L-400.0,124.84426623541994 L-400.0,124.39038669848483 L-400.0,123.93920341053803 L-400.0,123.49096834275086 L-400.0,123.04593346629477 L-400.0,122.60476285919749 L-400.0,122.38683096557189 L-400.0,122.17166971812308 L-400.0,121.96003402256011 L-400.0,121.75267878459205 L-400.0,121.55035890992801 L-400.0,121.35382930427703 L-400.0,121.16382082747496 L-400.0,120.98087378174864 L-400.0,120.80543776276001 L-400.0,120.72067671365731 L-400.0,120.63796181167703 L-400.0,120.55734918696515 L-400.0,120.4788949696677 L-400.0,120.40265528993065 L-400.0,120.3286862779001 " />
			<path d="M0.0,120.49302941685 L-400.0,120.3286862779 " />
			<path d="M-33.66293927925592,120.0 L-400.0,120.0 " />
			<path d="M16.966223581258035,297.4550664628113 L400.0,240.0 " />
			<path d="M400.0,240.0 L400.0,224.96640619782016 L400.0,209.92698358005958 L400.0,194.8832833131265 L400.0,187.35927453243286 L400.0,179.83313313380347 L400.0,172.30418859931407 L400.0,164.77222219812273 L400.0,157.23826264152567 L400.0,149.7020558141936 L400.0,142.16439714761717 L400.0,138.39674264117386 L400.0,134.63251646003386 L400.0,132.75318168122595 L400.0,130.8774732026453 L400.0,129.00721194666215 L400.0,128.07484792895306 L400.0,127.14500440501335 L400.0,126.21952050627864 L400.0,125.30058999370276 L400.0,124.84426623541994 L400.0,124.39038669848483 L400.0,123.93920341053803 L400.0,123.49096834275086 L400.0,123.04593346629477 L400.0,122.60476285919749 L400.0,122.38683096557189 L400.0,122.17166971812308 L400.0,121.96003402256011 L400.0,121.75267878459205 L400.0,121.55035890992801 L400.0,121.35382930427703 L400.0,121.16382082747496 L400.0,120.98087378174864 L400.0,120.80543776276001 L400.0,120.72067671365731 L400.0,120.63796181167703 L400.0,120.55734918696515 L400.0,120.4788949696677 L400.0,120.40265528993065 L400.0,120.3286862779001 " />
			<path d="M400.0,120.3286862779 L400.0,119.99999999999669 " />
			<path d="M0.0,120.49302941685 L400.0,120.3286862779 " />
			<path d="M33.66297018260038,120.0 L400.0,120.0 " />
			<path d="M-0.9083429173596347,420.2729722320408 L-80.0,420.19173366211 " />
			<path d="M-80.0,490.0 L-80.0,485.6237544763327 L-80.0,481.2414385291538 L-80.0,476.8539887311522 L-80.0,472.4620275940501 L-80.0,468.06592311261994 L-80.0,463.6658434223747 L-80.0,459.2618212187081 L-80.0,454.8538366971208 L-80.0,450.44194170288887 L-80.0,446.02646420131225 L-80.0,437.18996674901075 L-80.0,434.98209749162845 L-80.0,432.77652299397226 L-80.0,430.57514166750843 L-80.0,429.47692718965277 L-80.0,428.38104428623774 L-80.0,427.28842419180353 L-80.0,426.2003601022866 L-80.0,425.1185755171176 L-80.0,424.5807273597476 L-80.0,424.0455899057429 L-80.0,423.5144325084912 L-80.0,422.98861621782873 L-80.0,422.4695628127339 L-80.0,422.2130753794398 L-80.0,421.9588904133808 L-80.0,421.7072151362619 L-80.0,421.4587638576864 L-80.0,421.21614299564015 L-80.0,421.09797135937913 L-80.0,420.98240019352687 L-80.0,420.86981045350876 L-80.0,420.76058309322633 L-80.0,420.6550713891821 L-80.0,420.55353027328255 L-80.0,420.45619284407655 L-80.0,420.3632922001131 L-80.0,420.2750614399413 L-80.0,420.1917336621101 " />
			<path d="M0.0,520.0 L-80.0,490.0 " />
			<path d="M0.0,420.0 L-80.0,420.0 " />
			<path d="M-80.0,420.19173366211 L-80.0,419.9999999999998 " />
			<path d="M0.9083429173596347,420.2729722320408 L80.0,420.19173366211 " />
			<path d="M80.0,490.0 L80.0,485.6237544763327 L80.0,481.2414385291538 L80.0,476.8539887311522 L80.0,472.4620275940501 L80.0,468.06592311261994 L80.0,463.6658434223747 L80.0,459.2618212187081 L80.0,454.8538366971208 L80.0,450.44194170288887 L80.0,446.02646420131225 L80.0,437.18996674901075 L80.0,434.98209749162845 L80.0,432.77652299397226 L80.0,430.57514166750843 L80.0,429.47692718965277 L80.0,428.38104428623774 L80.0,427.28842419180353 L80.0,426.2003601022866 L80.0,425.1185755171176 L80.0,424.5807273597476 L80.0,424.0455899057429 L80.0,423.5144325084912 L80.0,422.98861621782873 L80.0,422.4695628127339 L80.0,422.2130753794398 L80.0,421.9588904133808 L80.0,421.7072151362619 L80.0,421.4587638576864 L80.0,421.21614299564015 L80.0,421.09797135937913 L80.0,420.98240019352687 L80.0,420.86981045350876 L80.0,420.76058309322633 L80.0,420.6550713891821 L80.0,420.55353027328255 L80.0,420.45619284407655 L80.0,420.3632922001131 L80.0,420.2750614399413 L80.0,420.1917336621101 " />
			<path d="M0.0,520.0 L80.0,490.0 " />
			<path d="M0.0,420.0 L80.0,420.0 " />
			<path d="M80.0,420.19173366211 L80.0,419.9999999999998 " />
			<path d="M0.911447568397,420.27390523158 L0.638013297878,420.19173366211 " />
			<path d="M-1.110223024625e-14,490.0 L0.15733411392131189,488.9065725381166 L0.3116060053384559,487.8127085704745 L0.46290586754280394,486.7184293388755 L0.6113175971726693,485.6237544763327 L0.7569187931779343,484.52870209518 L0.8997797881358586,483.43328869243544 L1.0399655723068366,482.33752962784325 L1.1775322872515754,481.2414385291538 L1.312531750397892,480.145028210749 L1.4450058536406465,479.0483097942953 L1.5749916647784759,477.95129358469956 L1.702518317704274,476.8539887311522 L1.8276053710583164,475.75640298878227 L1.9502698033838242,474.6585437866872 L2.07051522104077,473.5604169377905 L2.188339761545245,472.4620275940501 L2.3037371891095875,471.36338048762127 L2.416685554701374,470.2644788437785 L2.527159367020193,469.1653255481276 L2.6351277819984427,468.06592311261994 L2.740542275676057,466.9662728150467 L2.843350678954224,465.86637567874703 L2.9434964413163467,464.76623254544734 L3.0409028799038462,463.6658434223747 L3.1354875330023155,462.5652080772187 L3.2271656049228916,461.46432625478434 L3.315831163079299,460.36319749277163 L3.401367030841335,459.2618212187081 L3.483655297469706,458.16019687521054 L3.562559720717212,457.0583243737762 L3.6379232962488013,455.956204156952 L3.7095878822317996,454.8538366971208 L3.777383469069785,453.7512232292829 L3.8411079700363002,452.64836704970196 L3.900553932380852,451.54527179946 L3.9555083102218433,450.44194170288887 L4.005718692813061,449.3383850892746 L4.0509157690631925,448.23461205026535 L4.090828061736962,447.1306329871818 L4.125143166340547,446.02646420131225 L4.153511482732327,444.92212735597377 L4.175581364692528,443.81764443363875 L4.19095917416503,442.71304493558665 L4.199185962605411,441.6083700572024 L4.199796767265316,440.50366208413885 L4.197090449517036,439.95131114570495 L4.192274884693566,439.39897444067395 L4.185270852432661,438.8466617971184 L4.175999132372084,438.2943830431105 L4.16438050414959,437.74214800672286 L4.150334757145298,437.18996674901075 L4.1337643432324365,436.63785341011317 L4.114556948596867,436.0858256041673 L4.09259978769134,435.5339010562976 L4.067780074968601,434.98209749162845 L4.039985024881398,434.43043263528415 L4.0090922889526315,433.878926976475 L3.974940655383054,433.32761223753363 L3.937359041205409,432.77652299397226 L3.8961763634510036,432.22569382130365 L3.851221539151145,431.6751592950405 L3.8023134617751446,431.1249567020881 L3.7492032317213257,430.57514166750843 L3.69161386126159,430.0257774142552 L3.6292682725744276,429.47692718965277 L3.5618893348255587,428.9286542638848 L3.4891480178531755,428.38104428623774 L3.410566310433521,427.8342471469559 L3.325639634871749,427.28842419180353 L3.233863413473013,426.7437367665452 L3.134679213405873,426.2003601022866 L3.0820474869658376,425.9292405282636 L3.027229125848425,425.6585466433142 L2.9701039425484095,425.38831334155867 L2.9105517495605677,425.1185755171176 L2.8484523593796767,424.84936806411133 L2.783683649527427,424.5807273597476 L2.7160499012297725,424.31274619014494 L2.6452607215711685,424.0455899057429 L2.5710194830990556,423.7794286355291 L2.493029558360873,423.5144325084912 L2.410994319904069,423.2507716536169 L2.3246169809743105,422.98861621782873 L2.233519488279944,422.7281454974635 L2.1371104046712923,422.4695628127339 L2.034763691781562,422.2130753794398 L1.9258533112439549,421.9588904133808 L1.8097532207762275,421.7072151362619 L1.748766450702054,421.5824511726207 L1.6855011482063258,421.4587638576864 L1.6196436366207692,421.3365341468844 L1.5508802392771106,421.21614299564015 L1.4788972795070756,421.09797135937913 L1.4033810806423908,420.98240019352687 L1.324017966014782,420.86981045350876 L1.2404942599664792,420.76058309322633 L1.1525146386260405,420.6550713891821 L1.0598489865264833,420.55353027328255 L0.9622816650348568,420.45619284407655 L0.859597035518212,420.3632922001131 L0.7515794593435796,420.2750614399413 L0.6380132978781199,420.1917336621101 " />
			<path d="M0.0,520.0 L-1.110223024625e-14,490.0 " />
			<path d="M0.638013297878,420.19173366211 L6.365693147094434e-14,419.9999999999998 " />
			<path d="M-1.110223024625e-14,420.19173366211 L0.009228918945315882,420.2557597236723 L0.016040794715822763,420.31941645884734 L0.02049961639080655,420.38271487182 L0.022669373049564255,420.4456659667754 L0.022614053771392896,420.5082807478984 L0.02039764763558948,420.5705702193742 L0.016084143721451002,420.63254538538763 L0.009737531108274503,420.6942172501237 L-0.008793382349262467,420.816695208281 L-0.03448558626257975,420.93809615383674 L-0.06639584079484678,421.0585169097336 L-0.10356675831010921,421.17805458721386 L-0.1450409511724125,421.2968062975199 L-0.18986103174580243,421.414869151894 L-0.28570930548202433,421.6493167378159 L-0.4812324156566746,422.11410032271135 L-0.5768268293839887,422.3457611013077 L-0.6697671392639357,422.5777869342716 L-0.7591520698604642,422.8108170025043 L-0.8440804790746147,423.04549039856596 L-0.9239458345164603,423.2822510253104 L-0.9990615083127123,423.52093331520655 L-1.0699199211730512,423.761253074489 L-1.1370134938071577,424.0029261093923 L-1.2008346469247122,424.24566822615105 L-1.261875801235395,424.4891952309999 L-1.3774617491648036,424.97754697892793 L-1.4856244786274238,425.4670293962056 L-1.5866693414166049,425.9576710279682 L-1.680859565106078,426.44952710443533 L-1.7684634648432411,426.942647279042 L-1.8498544653420972,427.4369659885308 L-1.9255048840186424,427.93230926761777 L-1.995890881040617,428.4284989387559 L-2.0614886165757618,428.92535682439825 L-2.1227421932769484,429.42272056736005 L-2.179905666996782,429.9205215984254 L-2.23316332555745,430.4187257788551 L-2.2826993501509203,430.91729902253195 L-2.3286979219691606,431.4162072433385 L-2.371340644328149,431.91541661754695 L-2.4107796163134667,432.41489632452306 L-2.447148119860705,432.9146174589394 L-2.4805791329295284,433.4145511464088 L-2.5112056334796042,433.9146685125442 L-2.5391605994705975,434.4149406829584 L-2.56456927745426,434.9153413128032 L-2.5875235654283184,435.4158549681111 L-2.608106371805986,435.9164691560998 L-2.6264006048679795,436.4171713840305 L-2.6424891728950186,436.91794915916444 L-2.65645498416782,437.4187899887627 L-2.6683786458959715,437.91968186797885 L-2.6863555503947,438.9215848343831 L-2.6969015114725177,439.9235966295425 L-2.7004919238733938,440.9256571467265 L-2.69756880522907,441.9277137620016 L-2.688491049217146,442.9297324869496 L-2.6736048256926335,443.93168218569934 L-2.653250434463253,444.933532748069 L-2.6277166995812684,445.93526305837594 L-2.597265776646037,446.93685666078886 L-2.5621594960906924,447.938297153642 L-2.5226420529988416,448.93957074829 L-2.4789199013905576,449.94066924816013 L-2.4311946286082073,450.94158517777277 L-2.3796660592076995,451.94231122808543 L-2.324507682420802,452.94284257655994 L-2.265872735537636,453.94317631278716 L-2.2039139361120723,454.94330957543 L-2.1387802529115603,455.9432399261007 L-2.070602874080898,456.942966932475 L-1.9995077215438914,457.9424907563794 L-1.9256204568875228,458.9418115533836 L-1.8490437027854958,459.9409289154484 L-1.769839249799592,460.93984143564455 L-1.6880647007236123,461.938547604596 L-1.6037833966999921,462.9370463530569 L-1.517126739850592,463.935341832045 L-1.4282706935625036,464.93344161041796 L-1.3373918404305254,465.93135330650045 L-1.244530916194393,466.9290758685302 L-1.1493434244578347,467.92658365826367 L-1.0514170511895236,468.9238467091659 L-0.9504602315665373,469.92084286352576 L-0.7443025660629038,471.91433474812163 L-0.540290188164713,473.9076416142745 L-0.4866985853841735,474.40574676236446 L-0.43026686687749677,474.9036455090997 L-0.3700771839195862,475.4012779639627 L-0.3054348692669387,475.8985986745203 L-0.1726039555933231,476.892937544963 L-0.1120424633884102,477.3904480927496 L-0.08490069547593143,477.6393968111969 L-0.06048986046419955,477.88851569893274 L-0.03928866893378777,478.1378356606464 L-0.021775831465268757,478.3873876010272 L-0.00832284350967955,478.6371953829618 L0.0013324570115022512,478.88724125122343 L0.007684186711709954,479.13749221599966 L0.011226809511204285,479.38791526466713 L0.01186259008909575,479.88914556318247 L0.0011812809277903424,480.8922186114811 L-0.002593387001848496,481.39355908681245 L-0.003597856057465685,481.89466603055513 L0.0007395006440183016,483.8983898991457 " />
			<path d="M0.0007395006440183558,483.89838989914585 L5.167580798053077e-07,489.4257039437873 " />
			<path d="M5.167580798053434e-07,489.4257039437875 L-1.1102230291619067e-14,489.9999999999999 " />
			<path d="M-1.110223024625e-14,420.19173366211 L-1.110223024625e-14,420.0 " />
			<path d="M-1.110223024625e-14,490.0 L-5.167581020171324e-07,489.42570394382295 " />
			<path d="M-5.167581020171319e-07,489.42570394382295 L-0.0007395006440389229,483.8983898991419 " />
			<path d="M-0.0007395006440389192,483.8983898991419 L0.003597856057446368,481.894666030551 L0.002593387001811151,481.39355908680824 L-0.0011812809278535122,480.8922186114769 L-0.011862590089132763,479.8891455631783 L-0.011226809511178737,479.387915264663 L-0.00768418671164133,479.13749221599556 L-0.0013324570113829514,478.88724125121934 L0.00832284350985697,478.6371953829577 L0.021775831465511594,478.3873876010232 L0.039288668934093,478.1378356606424 L0.06048986046455724,477.88851569892876 L0.08490069547633235,477.63939681119297 L0.1120424633888464,477.39044809274566 L0.17260395559380365,476.8929375449591 L0.3054348692674192,475.8985986745166 L0.3700771839200303,475.401277963959 L0.43026686687790605,474.9036455090961 L0.4866985853845556,474.4057467623608 L0.540290188165076,473.9076416142709 L0.7443025660632476,471.9143347481183 L0.9504602315668687,469.9208428635225 L1.0514170511898397,468.9238467091627 L1.149343424458135,467.9265836582606 L1.2445309161946787,466.92907586852715 L1.3373918404307967,465.93135330649756 L1.4282706935627572,464.9334416104151 L1.5171267398508073,463.93534183204235 L1.6037833967001287,462.93704635305437 L1.6880647007236118,461.93854760459345 L1.7698392497994064,460.939841435642 L1.8490437027851334,459.94092891544585 L1.925620456887054,458.94181155338106 L1.9995077215434414,457.94249075637686 L2.070602874080572,456.9429669324725 L2.138780252911402,455.9432399260983 L2.2039139361120665,454.9433095754276 L2.2658727355377217,453.9431763127848 L2.324507682420926,452.9428425765575 L2.3796660592078283,451.942311228083 L2.4311946286083277,450.9415851777704 L2.4789199013906678,449.94066924815775 L2.522642052998941,448.9395707482877 L2.5621594960907808,447.93829715363967 L2.5972657766461125,446.9368566607865 L2.6277166995813115,445.9352630583735 L2.6532504344632204,444.9335327480666 L2.6736048256924585,443.93168218569696 L2.6884910492167697,442.9297324869473 L2.6975688052285043,441.9277137619993 L2.7004919238727294,440.9256571467243 L2.696901511471906,439.9235966295405 L2.6863555503942504,438.92158483438124 L2.6683786458957086,437.9196818679771 L2.656454984167633,437.418789988761 L2.642489172894885,436.9179491591628 L2.62640060486788,436.4171713840289 L2.6081063718059045,435.91646915609823 L2.5875235654282447,435.41585496810956 L2.564569277454187,434.91534131280173 L2.5391605994705224,434.4149406829569 L2.5112056334795256,433.9146685125428 L2.4805791329294475,433.4145511464075 L2.4471481198606213,432.91461745893815 L2.410779616313381,432.41489632452186 L2.371340644328061,431.9154166175458 L2.328697921969069,431.4162072433374 L2.282699350150825,430.9172990225309 L2.23316332555735,430.41872577885414 L2.179905666996677,429.92052159842444 L2.1227421932768396,429.42272056735914 L2.0614886165756503,428.9253568243975 L1.9958908810405034,428.4284989387552 L1.9255048840185252,427.9323092676171 L1.8498544653419746,427.4369659885301 L1.7684634648431112,426.9426472790413 L1.6808595651059368,426.4495271044346 L1.5866693414164474,425.9576710279674 L1.485624478627248,425.46702939620474 L1.3774617491646088,424.9775469789271 L1.2618758012351823,424.48919523099903 L1.2008346469244904,424.2456682261502 L1.1370134938069223,424.0029261093914 L1.0699199211728008,423.76125307448814 L0.99906150831245,423.5209333152057 L0.9239458345161857,423.2822510253096 L0.8440804790743232,423.04549039856516 L0.7591520698601631,422.8108170025035 L0.6697671392636314,422.5777869342709 L0.5768268293836822,422.34576110130695 L0.48123241565637725,422.11410032271067 L0.28570930548175805,421.6493167378153 L0.18986103174556593,421.41486915189347 L0.1450409511721928,421.29680629751937 L0.10356675830991448,421.1780545872134 L0.06639584079467645,421.05851690973316 L0.034485586262438465,420.93809615383634 L0.008793382349158031,420.8166952082806 L-0.009737531108340637,420.69421725012336 L-0.01608414372149892,420.63254538538723 L-0.02039764763561962,420.57057021937385 L-0.022614053771408446,420.50828074789814 L-0.02266937304956944,420.4456659667751 L-0.020499616390806635,420.3827148718198 L-0.016040794715822797,420.3194164588472 L-0.009228918945322174,420.2557597236722 L-3.4826020775477456e-14,420.19173366211015 " />
			<path d="M0.0,420.27390523158 L-1.110223024625e-14,420.19173366211 " />
			<path d="M-0.638013297878,420.19173366211 L-0.7515794593435744,420.2750614399413 L-0.8595970355181888,420.3632922001131 L-0.9622816650348072,420.4561928440765 L-1.0598489865263936,420.55353027328243 L-1.152514638625912,420.65507138918196 L-1.2404942599663265,420.7605830932261 L-1.3240179660146132,420.86981045350853 L-1.403381080642214,420.98240019352664 L-1.4788972795068975,421.0979713593789 L-1.5508802392769359,421.2161429956399 L-1.6196436366206017,421.3365341468841 L-1.6855011482061673,421.45876385768617 L-1.7487664507019052,421.58245117262044 L-1.809753220776088,421.70721513626165 L-1.925853311243825,421.9588904133805 L-2.03476369178144,422.2130753794395 L-2.1371104046711826,422.4695628127336 L-2.2335194882798466,422.72814549746323 L-2.3246169809742248,422.9886162178285 L-2.4109943199039954,423.2507716536166 L-2.493029558360808,423.514432508491 L-2.5710194830989996,423.7794286355289 L-2.645260721571124,424.04558990574276 L-2.7160499012297383,424.3127461901448 L-2.7836836495273967,424.58072735974747 L-2.8484523593796482,424.8493680641113 L-2.9105517495605406,425.1185755171175 L-2.9701039425483815,425.38831334155856 L-3.0272291258483945,425.658546643314 L-3.0820474869658034,425.92924052826345 L-3.134679213405832,426.2003601022864 L-3.2338634134729625,426.74373676654494 L-3.3256396348716954,427.28842419180324 L-3.4105663104334694,427.83424714695553 L-3.4891480178531276,428.38104428623745 L-3.561889334825515,428.9286542638845 L-3.6292682725743894,429.47692718965243 L-3.691613861261556,430.02577741425483 L-3.7492032317212955,430.5751416675081 L-3.802313461775118,431.12495670208784 L-3.8512215391511226,431.6751592950402 L-3.8961763634509854,432.2256938213034 L-3.937359041205395,432.7765229939721 L-3.9749406553830435,433.32761223753346 L-4.009092288952624,433.87892697647493 L-4.0399850248813935,434.4304326352841 L-4.067780074968598,434.98209749162845 L-4.092599787691338,435.5339010562977 L-4.114556948596866,436.0858256041674 L-4.133764343232436,436.6378534101132 L-4.1503347571452975,437.1899667490108 L-4.164380504149591,437.74214800672286 L-4.175999132372087,438.29438304311054 L-4.185270852432674,438.8466617971184 L-4.192274884693597,439.398974440674 L-4.197090449517104,439.951311145705 L-4.199796767265439,440.5036620841389 L-4.199185962605712,441.6083700572024 L-4.190959174165541,442.71304493558665 L-4.17558136469318,443.81764443363875 L-4.15351148273296,444.92212735597366 L-4.125143166341025,446.0264642013121 L-4.0908280617372395,447.1306329871815 L-4.050915769063312,448.23461205026507 L-4.005718692813103,449.3383850892743 L-3.9555083102218607,450.4419417028885 L-3.900553932380869,451.54527179945967 L-3.841107970036319,452.6483670497016 L-3.7773834690698056,453.7512232292826 L-3.7095878822318213,454.85383669712047 L-3.6379232962488235,455.9562041569517 L-3.5625597207172346,457.05832437377586 L-3.483655297469729,458.1601968752102 L-3.4013670308413597,459.2618212187078 L-3.315831163079325,460.3631974927713 L-3.2271656049229187,461.464326254784 L-3.1354875330023435,462.5652080772183 L-3.0409028799038746,463.6658434223743 L-2.943496441316376,464.76623254544694 L-2.8433506789542538,465.86637567874675 L-2.7405422756760878,466.96627281504647 L-2.635127781998475,468.06592311261966 L-2.52715936702023,469.16532554812727 L-2.4166855547014183,470.264478843778 L-2.3037371891096425,471.3633804876207 L-2.1883397615453086,472.46202759404946 L-2.0705152210408397,473.5604169377899 L-1.9502698033838957,474.6585437866866 L-1.8276053710583837,475.75640298878164 L-1.7025183177043324,476.8539887311516 L-1.5749916647785243,477.9512935846991 L-1.445005853640689,479.0483097942949 L-1.3125317503979348,480.1450282107486 L-1.1775322872516267,481.2414385291534 L-1.0399655723069032,482.3375296278427 L-0.8997797881359387,483.4332886924348 L-0.7569187931780217,484.52870209517937 L-0.6113175971727579,485.623754476332 L-0.4629058675428863,486.71842933887496 L-0.31160600533851535,487.81270857047406 L-0.1573341139213569,488.9065725381163 L-3.1525478919446433e-14,489.9999999999999 " />
			<path d="M-0.911447568397,420.27390523158 L-0.638013297878,420.19173366211 " />
			<path d="M3.250000007177082,0.0 L3.6904808299528358,0.6366654019658929 L4.127503409422564,1.2757328339633467 L4.56106331242498,1.9171753549544186 L4.991156376199737,2.5609661604417244 L5.417778708387429,3.207078582468438 L5.8409266870295875,3.8554860896182896 L6.260596960568687,4.50616228701557 L6.676786447848139,5.159080916325126 L7.089492338112298,5.814215855752365 L7.498712091006456,6.471541120043248 L7.9044434365768454,7.131030860484299 L8.30668437527064,7.792659364902596 L8.70543317793595,8.456401057665778 L9.100688385821831,9.12223049968204 L9.492448810578274,9.790122388400135 L9.88071353425621,10.460051557809376 L10.265481909307512,11.13199297843963 L10.646753558584996,11.80592175736133 L11.024528375342408,12.48181313818546 L11.398806523234445,13.159642501063562 L11.769588436316736,13.839385362687738 L12.136874819045852,14.521017376290649 L12.500666646279306,15.204514331645509 L12.860965163275555,15.889852155066105 L13.217771885693983,16.57700690940676 L13.571088599594926,17.26595479406237 L13.920917361439653,17.956672144968383 L14.267260498090376,18.64913543460081 L14.610120606810248,19.343321271976215 L14.94950055526336,20.039206402651725 L15.285403481514738,20.73676770872501 L15.61783279403036,21.43598220883433 L15.946792171677135,22.13682705815847 L16.27228556372291,22.839279548416783 L16.594317189836485,23.543317107869203 L16.912891540087582,24.248917301316183 L17.228013374946876,24.956057830098754 L17.53968772528598,25.664716532098513 L17.847919892377433,26.374871381737602 L18.15271544789474,27.086500489978725 L18.454080233912325,27.799582104325147 L18.752020362905554,28.514094608820685 L19.046542217750744,29.230016524049717 L19.337652451725145,29.947326507137184 L19.62535798850694,30.666003351748575 L19.90966602217527,31.386025988089937 L20.190584017210195,32.107373482907896 L20.468119708492736,32.83002503948963 L20.74228110130483,33.55395999766282 L21.013076471329374,34.2791578337958 L21.280514364650195,35.005598160797376 L21.544603597752065,35.733260728116974 L21.80535325752069,36.46212542174453 L22.062772701242725,37.19217226421059 L22.316871556605758,37.92338141458621 L22.567659721698316,38.65573316848302 L22.81514736500986,39.389207958053206 L23.059344925430818,40.12378635198954 L23.300263112252527,40.85944905552531 L23.53791290516728,41.59617691043437 L23.772305554268293,42.33395089503117 L24.003452580049753,43.072752124170684 L24.23136577340676,43.812561849248425 L24.456057195635367,44.553361458200534 L24.677539178432557,45.295132475503635 L24.895824323896264,46.037856562174944 L25.11092550452535,46.78151551577224 L25.322855863219626,47.52609127039384 L25.531628813279845,48.271565896678645 L25.737258038407695,49.0179216018061 L25.939757492705798,49.765140729496196 L26.139141400677723,50.513205760009505 L26.335424257227977,51.26209931014712 L26.528620827662017,52.01180413325076 L26.718746147686222,52.762303119202635 L26.905815523407924,53.51357929442554 L27.089844531335388,54.265615821882825 L27.270849018377817,55.01839600107841 L27.44884510184537,55.771903268056754 L27.623849169449127,56.526121195402865 L27.79587787930112,57.28103349224236 L27.964948159914307,58.036624004241354 L28.131077210202612,58.79287671360658 L28.294282499480857,59.549775739085234 L28.454581767464852,60.30730533596519 L28.611993024271314,61.0654498960748 L28.766534550417912,61.82419394778298 L28.918224896823258,62.583522155999255 L29.067082884806887,63.343419322173645 L29.213127606089294,64.10387038429677 L29.356378422791902,64.86486041689977 L29.496854967437077,65.62637463105438 L29.634577142948135,66.38839837437288 L29.769565122649308,67.15091713100813 L29.901839350265792,67.9139165216535 L30.03142053992371,68.67738230354294 L30.158329676150128,69.44130037045096 L30.282588013873056,70.20565675269268 L30.40421707842144,70.97043761712365 L30.523238665525156,71.7356292671401 L30.639674841315042,72.50121814267877 L30.753547942322854,73.26719082021695 L30.864880575481298,74.0335340127725 L30.97369561812403,74.80023456990386 L31.080016217985627,75.56727947771 L31.183865793201612,76.33465585883042 L31.285268032308466,77.10235097244527 L31.384246894243578,77.87035221427513 L31.480826608345296,78.63864711658125 L31.575031674352914,79.40722334816542 L31.66688686240665,80.1760687143699 L31.756417213047662,80.94517115707762 L31.84364803721807,81.714518754712 L31.928604916260905,82.48409972223705 L32.011313701920166,83.25390241115731 L32.09180051634077,84.02391530951792 L32.17009175206857,84.79412704190452 L32.24621407205039,85.56452636944336 L32.32019440963397,86.3351021898012 L32.39205996856799,87.10584353718544 L32.461838223002076,87.87673958234394 L32.529556917486794,88.64777963256518 L32.59524406697364,89.41895313167817 L32.65892795681506,90.19024966005249 L32.780400450976124,91.73317080876625 L32.89420609080834,93.27646245247423 L32.95105128409179,94.1102811397025 L33.005553703666386,94.94423818506743 L33.057736769823684,95.7783274154398 L33.10762377963556,96.61254275036667 L33.155237906954206,97.44687820207149 L33.20060220241213,98.28132787545402 L33.24373959342214,99.11588596809044 L33.2846728841774,99.9505467702332 L33.323424755651345,100.78530466481116 L33.36001776559776,101.6201541274295 L33.39447434855074,102.45508972636978 L33.42681681582469,103.29010612258988 L33.45706735551432,104.12519806972404 L33.48524803249469,104.96036041408286 L33.51138078842115,105.7955880946533 L33.53548744172937,106.63087614309863 L33.577709098135415,108.301613933649 L33.61208508480454,109.97253589256734 L33.63878551331357,111.64360560950871 L33.65797852372438,113.31478815694973 L33.66983028458391,114.98605009018868 L33.674504992924184,116.65735944734544 L33.672164874262286,118.3286857493615 L33.662970182600375,119.99999999999986 " />
			<path d="M16.966223581258014,297.4550664628113 L16.790500593357752,299.3653825651085 L16.61707335226743,301.2759091718665 L16.445965275544076,303.18664546116406 L16.277197757586812,305.09759027410496 L16.110790169636857,307.00874211481795 L15.946759859777513,308.9200991504567 L15.7851221529342,310.8316592111997 L15.625890350874418,312.74341979025036 L15.469075732207758,314.6553780438372 L15.314687552385909,316.5675307912135 L15.16273304370266,318.47987451465764 L15.01321098094159,320.39240743106853 L14.866104399059566,322.30513114654616 L14.721408792124066,324.2180416155685 L14.579117958292061,326.13113442124813 L14.439222966874853,328.0444051286042 L14.301712158338077,329.9578492845622 L14.166571144301708,331.8714624179544 L14.033782807540062,333.78524003951924 L13.9033273019818,335.6991776419017 L13.775182052709912,337.6132706996534 L13.64932175596172,339.5275146692324 L13.525718379128902,341.4419049890031 L13.404341160757465,343.35643707923634 L13.285156610547752,345.27110634210976 L13.168128509354446,347.1859081617073 L13.05321790918657,349.1008379040193 L12.94038313320749,351.0158909169425 L12.720760702240836,354.84634805574325 L12.508873224848136,358.67724199941415 L12.304289047892459,362.5085348797639 L12.106532856706282,366.3401885391046 L11.9150856750915,370.17216453025225 L11.729384865319417,374.0044241165265 L11.548824128130757,377.83692827175065 L11.372753502735653,381.6696376802519 L11.200479380664778,385.5025127367911 L11.03129140011262,389.3355154585543 L10.699079766827758,397.00177850853424 L10.369494945039351,404.6681598312198 L10.203482396667129,408.50130016874044 L10.035422677186979,412.3343510097336 L9.864354449610094,416.1672669853399 L9.689287555030178,419.9999999999995 " />
			<path d="M-0.0031618529171940587,489.9782422266356 L-0.0007395006440390792,483.89838989914114 " />
			<path d="M-6.60023520887893e-07,489.9999954590729 L-5.167581020176463e-07,489.4257039438254 " />
			<path d="M0.000739500644016379,483.89838989914085 L0.0031618532972689612,489.9782422240194 " />
			<path d="M5.16758079805469e-07,489.42570394378765 L6.600223185894693e-07,489.99999545908105 " />

       </g>
    </g>
    
</svg>
